<?xml version="1.0" encoding="UTF-8"?>
<svg width="48px" height="48px" viewBox="0 0 48 48" version="1.1" xmlns="http://www.w3.org/2000/svg" xmlns:xlink="http://www.w3.org/1999/xlink">
    <!-- Generator: Sketch 51.2 (57519) - http://www.bohemiancoding.com/sketch -->
    <title>feature-icon</title>
    <desc>Created with Sketch.</desc>
    <defs></defs>
    <g id="-" stroke="none" stroke-width="1" fill="none" fill-rule="evenodd">
        <g transform="translate(-264.000000, -12368.000000)" fill="#293033" fill-rule="nonzero" id="FEATURES">
            <g transform="translate(0.000000, 12088.000000)">
                <g id="01" transform="translate(160.000000, 248.000000)">
                    <g id="feature-icon" transform="translate(104.000000, 32.000000)">
                        <path d="M37.0858599,12.9663185 C29.0703694,12.9663185 26.226242,18.1764076 26.226242,22.6380637 L26.226242,38.2498854 C26.226242,42.7115414 29.0703694,47.9216306 37.0858599,47.9216306 C45.1013503,47.9216306 47.9454777,42.7115414 47.9454777,38.2498854 L47.9454777,22.6381656 C47.9454777,18.1764076 45.1013503,12.9663185 37.0858599,12.9663185 Z M46.4168153,38.2499873 C46.4168153,39.1884841 46.2364331,41.5829809 44.5659108,43.5426242 C42.9534777,45.4340892 40.4367898,46.393172 37.0858599,46.393172 C33.7349299,46.393172 31.218242,45.4340892 29.6058089,43.5426242 C27.9351847,41.5829809 27.7549045,39.1884841 27.7549045,38.2499873 L27.7549045,22.6381656 C27.7549045,21.6996688 27.9352866,19.305172 29.6058089,17.3455287 C31.218242,15.4540637 33.7349299,14.4949809 37.0858599,14.4949809 C40.4367898,14.4949809 42.9534777,15.4540637 44.5659108,17.3455287 C46.236535,19.305172 46.4168153,21.6996688 46.4168153,22.6381656 L46.4168153,38.2499873 Z" id="Shape"></path>
                        <path d="M30.5095541,1.55230573 C33.714242,1.55230573 36.3215287,4.15959236 36.3215287,7.36428025 L36.3215287,10.6733248 C36.3215287,11.0955414 36.6637452,11.4376561 37.0858599,11.4376561 C37.5079745,11.4376561 37.8501911,11.0955414 37.8501911,10.6733248 L37.8501911,7.36428025 C37.8501911,3.31658599 34.5571465,0.0236433121 30.5095541,0.0236433121 C26.4618599,0.0236433121 23.1689172,3.29915924 23.1689172,7.32524841 L23.1689172,27.6773503 C23.1689172,30.860535 20.5617325,33.450293 17.3569427,33.450293 C14.1521529,33.450293 11.5449682,30.8430064 11.5449682,27.6383185 L11.5449682,21.5574013 C17.1340637,21.1639236 21.5612739,16.4916178 21.5612739,10.8041783 C21.5612739,4.85971975 16.7250955,0.0235414013 10.7806369,0.0235414013 C4.83617834,0.0235414013 0,4.85992357 0,10.8043822 C0,16.4918217 4.42721019,21.1641274 10.0163057,21.5576051 L10.0163057,27.6385223 C10.0163057,31.6862166 13.3093503,34.9791592 17.3569427,34.9791592 C21.404535,34.9791592 24.6975796,31.7036433 24.6975796,27.6775541 L24.6975796,7.32535032 C24.6975796,4.14216561 27.3047643,1.55230573 30.5095541,1.55230573 Z M1.52866242,10.8043822 C1.52866242,5.70272611 5.6790828,1.55240764 10.7806369,1.55240764 C15.8821911,1.55240764 20.0326115,5.70282803 20.0326115,10.8043822 C20.0326115,15.9059363 15.8821911,20.0563567 10.7806369,20.0563567 C5.6790828,20.0563567 1.52866242,15.9059363 1.52866242,10.8043822 Z" id="Shape"></path>
                        <path d="M10.0138599,14.7060382 C10.0138599,15.1281529 10.3558726,15.4703694 10.7780892,15.4704713 C11.2003057,15.4704713 11.5424204,15.1283567 11.5425223,14.706242 L11.547414,6.90292994 C11.547414,6.48071338 11.2052994,6.13849682 10.7831847,6.13849682 C10.3609682,6.13849682 10.0188535,6.48061146 10.0187516,6.90272611 L10.0138599,14.7060382 Z" id="Shape"></path>
                        <path d="M18.503949,10.8043822 C18.503949,6.54573248 15.0392866,3.08107006 10.7806369,3.08107006 C9.01890446,3.08107006 7.29457325,3.69253503 5.92540127,4.80295541 C4.57712102,5.89615287 3.62598726,7.42501911 3.24718471,9.1077707 C3.15444586,9.51959236 3.41319745,9.92866242 3.82501911,10.0212994 C4.23694268,10.1143439 4.64591083,9.85538854 4.73854777,9.44356688 C5.36907006,6.64264968 7.91011465,4.60963057 10.7806369,4.60963057 C14.1963822,4.60963057 16.9752866,7.38863694 16.9752866,10.8042803 C16.9752866,14.2199236 14.1963822,16.9989299 10.7806369,16.9989299 C7.91011465,16.9989299 5.36907006,14.9660127 4.73854777,12.1649936 C4.64580892,11.753172 4.23663694,11.4942166 3.82501911,11.5872611 C3.41319745,11.6798981 3.15444586,12.0889682 3.24718471,12.5007898 C3.62598726,14.1835414 4.57712102,15.7124076 5.92529936,16.805707 C7.29447134,17.9161274 9.01880255,18.5275924 10.780535,18.5275924 C15.0392866,18.5276943 18.503949,15.0630318 18.503949,10.8043822 Z" id="Shape"></path>
                        <path d="M37.8501911,29.6796943 L37.8501911,27.0223694 C38.9860892,26.6908535 39.8185987,25.6407643 39.8185987,24.3991847 L39.8185987,20.7713631 C39.8185987,19.5297834 38.9860892,18.4796943 37.8501911,18.1481783 L37.8501911,16.7879745 C37.8501911,16.365758 37.5079745,16.0236433 37.0858599,16.0236433 C36.6637452,16.0236433 36.3215287,16.365758 36.3215287,16.7879745 L36.3215287,18.1481783 C35.1856306,18.4796943 34.353121,19.5297834 34.353121,20.7713631 L34.353121,24.3991847 C34.353121,25.6407643 35.1856306,26.6908535 36.3215287,27.0223694 L36.3215287,29.6796943 L30.0478981,29.6796943 C29.6257834,29.6796943 29.2835669,30.0218089 29.2835669,30.4440255 C29.2835669,30.866242 29.6257834,31.2083567 30.0478981,31.2083567 L44.1238217,31.2083567 C44.5459363,31.2083567 44.8881529,30.866242 44.8881529,30.4440255 C44.8881529,30.0218089 44.5459363,29.6796943 44.1238217,29.6796943 L37.8501911,29.6796943 Z M35.8816815,24.3991847 L35.8816815,20.7713631 C35.8816815,20.107414 36.4218089,19.5672866 37.085758,19.5672866 C37.749707,19.5672866 38.2898344,20.1075159 38.2898344,20.7713631 L38.2898344,24.3991847 C38.2898344,25.0631338 37.749707,25.6032611 37.085758,25.6032611 C36.4218089,25.6032611 35.8816815,25.0631338 35.8816815,24.3991847 Z" id="Shape"></path>
                    </g>
                </g>
            </g>
        </g>
    </g>
</svg>
