<?xml version="1.0" encoding="UTF-8"?>
<svg width="48px" height="42px" viewBox="0 0 48 42" version="1.1" xmlns="http://www.w3.org/2000/svg" xmlns:xlink="http://www.w3.org/1999/xlink">
    <!-- Generator: Sketch 51.2 (57519) - http://www.bohemiancoding.com/sketch -->
    <title>feature-icon</title>
    <desc>Created with Sketch.</desc>
    <defs></defs>
    <g id="-" stroke="none" stroke-width="1" fill="none" fill-rule="evenodd">
        <g transform="translate(-552.000000, -12788.000000)" id="FEATURES">
            <g transform="translate(0.000000, 12088.000000)">
                <g id="10" transform="translate(448.000000, 664.000000)">
                    <g id="feature-icon" transform="translate(104.000000, 36.000000)">
                        <path d="M43.9148936,3.31914894 L27.0638298,3.31914894 C26.6407149,3.31914894 26.2978723,3.66209362 26.2978723,4.08510638 C26.2978723,4.50811915 26.6407149,4.85106383 27.0638298,4.85106383 L43.9148936,4.85106383 C45.3227234,4.85106383 46.4680851,5.99642553 46.4680851,7.40425532 L46.4680851,8.30379574 C45.7681021,7.74168511 44.8804085,7.40425532 43.9148936,7.40425532 L24.7659574,7.40425532 L24.7659574,4.08510638 C24.7659574,1.83257872 22.9333787,0 20.6808511,0 L4.08510638,0 C1.83257872,0 0,1.83257872 0,4.08510638 L0,40.4886128 C0,40.9116255 0.342842553,41.2545702 0.765957447,41.2545702 L47.2340426,41.2545702 C47.6571574,41.2545702 48,40.9116255 48,40.4886128 L48,7.40425532 C48,5.15172766 46.1674213,3.31914894 43.9148936,3.31914894 Z M46.4680851,39.7227574 L1.53191489,39.7227574 L1.53191489,4.08510638 C1.53191489,2.6772766 2.6772766,1.53191489 4.08510638,1.53191489 L20.6808511,1.53191489 C22.0886809,1.53191489 23.2340426,2.6772766 23.2340426,4.08510638 L23.2340426,8.17021277 C23.2340426,8.59322553 23.5768851,8.93617021 24,8.93617021 L43.9148936,8.93617021 C45.3227234,8.93617021 46.4680851,10.0815319 46.4680851,11.4893617 L46.4680851,39.7227574 Z" id="Shape" fill="#293033" fill-rule="nonzero"></path>
                        <g id="Group-2" transform="translate(10.000000, 15.000000)" stroke="#293033" stroke-linecap="round" stroke-linejoin="round" stroke-width="1.4">
                            <polyline id="Path-2" points="12.0519481 14.5384615 0 8 7.15584416 18 10.5454545 18 29 8.76923077 21.8441558 18 19.2077922 18 17.7012987 17.2307692"></polyline>
                            <polyline id="Path-3" points="11 11 15.1904762 0 19 11"></polyline>
                        </g>
                    </g>
                </g>
            </g>
        </g>
    </g>
</svg>