<?xml version="1.0" encoding="UTF-8"?>
<svg width="48px" height="44px" viewBox="0 0 48 44" version="1.1" xmlns="http://www.w3.org/2000/svg" xmlns:xlink="http://www.w3.org/1999/xlink">
    <!-- Generator: Sketch 51.2 (57519) - http://www.bohemiancoding.com/sketch -->
    <title>feature-icon</title>
    <desc>Created with Sketch.</desc>
    <defs></defs>
    <g id="-" stroke="none" stroke-width="1" fill="none" fill-rule="evenodd">
        <g transform="translate(-840.000000, -12786.000000)" fill="#293033" id="FEATURES">
            <g transform="translate(0.000000, 12088.000000)">
                <g id="11" transform="translate(736.000000, 664.000000)">
                    <g id="feature-icon" transform="translate(104.000000, 34.000000)">
                        <path d="M47.2340426,0.0510638298 L0.765957447,0.0510638298 C0.342842553,0.0510638298 0,0.394008511 0,0.817021277 L0,42.6893617 C0,43.1123745 0.342842553,43.4553191 0.765957447,43.4553191 L47.2340426,43.4553191 C47.6571574,43.4553191 48,43.1123745 48,42.6893617 L48,34.5191489 C48,34.0961362 47.6571574,33.7531915 47.2340426,33.7531915 C46.8109277,33.7531915 46.4680851,34.0961362 46.4680851,34.5191489 L46.4680851,41.9234043 L1.53191489,41.9234043 L1.53191489,7.7106383 L46.4680851,7.7106383 L46.4680851,31.4553191 C46.4680851,31.8783319 46.8109277,32.2212766 47.2340426,32.2212766 C47.6571574,32.2212766 48,31.8783319 48,31.4553191 L48,0.817021277 C48,0.394008511 47.6571574,0.0510638298 47.2340426,0.0510638298 Z M1.53191489,1.58297872 L29.8723404,1.58297872 L29.8723404,6.1787234 L1.53191489,6.1787234 L1.53191489,1.58297872 Z M31.4042553,6.1787234 L31.4042553,1.58297872 L46.4680851,1.58297872 L46.4680851,6.1787234 L31.4042553,6.1787234 Z" id="Shape" fill-rule="nonzero"></path>
                        <path d="M38.9617021,3.06382979 C38.511217,3.06382979 38.1446809,3.43036596 38.1446809,3.88085106 C38.1446809,4.33133617 38.511217,4.69787234 38.9617021,4.69787234 C39.4121872,4.69787234 39.7787234,4.33133617 39.7787234,3.88085106 C39.7787234,3.43036596 39.4121872,3.06382979 38.9617021,3.06382979 Z" id="Shape" fill-rule="nonzero"></path>
                        <path d="M34.7744681,3.06382979 C34.323983,3.06382979 33.9574468,3.43036596 33.9574468,3.88085106 C33.9574468,4.33133617 34.323983,4.69787234 34.7744681,4.69787234 C35.2249532,4.69787234 35.5914894,4.33133617 35.5914894,3.88085106 C35.5914894,3.43036596 35.2249532,3.06382979 34.7744681,3.06382979 Z" id="Shape" fill-rule="nonzero"></path>
                        <path d="M43.1489362,3.06382979 C42.6984511,3.06382979 42.3319149,3.43036596 42.3319149,3.88085106 C42.3319149,4.33133617 42.6984511,4.69787234 43.1489362,4.69787234 C43.5994213,4.69787234 43.9659574,4.33133617 43.9659574,3.88085106 C43.9659574,3.43036596 43.5994213,3.06382979 43.1489362,3.06382979 Z" id="Shape" fill-rule="nonzero"></path>
                        <g id="E" transform="translate(17.000000, 15.000000)">
                            <rect id="Rectangle" x="0" y="0" width="1.5" height="20" rx="0.75"></rect>
                            <rect id="Rectangle-Copy" x="4" y="0" width="11" height="1.5" rx="0.75"></rect>
                            <rect id="Rectangle-Copy-2" x="4" y="9" width="11" height="1.5" rx="0.75"></rect>
                            <rect id="Rectangle-Copy-3" x="4" y="18.5" width="11" height="1.5" rx="0.75"></rect>
                        </g>
                    </g>
                </g>
            </g>
        </g>
    </g>
</svg>