<?xml version="1.0" encoding="UTF-8"?>
<svg width="48px" height="48px" viewBox="0 0 48 48" version="1.1" xmlns="http://www.w3.org/2000/svg" xmlns:xlink="http://www.w3.org/1999/xlink">
    <!-- Generator: Sketch 51.2 (57519) - http://www.bohemiancoding.com/sketch -->
    <title>feature-icon</title>
    <desc>Created with Sketch.</desc>
    <defs>
        <polygon id="path-1" points="0.00765957447 0.00510638298 48 0.00510638298 48 48 0.00765957447 48"></polygon>
    </defs>
    <g id="-" stroke="none" stroke-width="1" fill="none" fill-rule="evenodd">
        <g transform="translate(-1128.000000, -12784.000000)" id="FEATURES">
            <g transform="translate(0.000000, 12088.000000)">
                <g id="12" transform="translate(1024.000000, 664.000000)">
                    <g id="feature-icon" transform="translate(104.000000, 32.000000)">
                        <g id="Group-3">
                            <mask id="mask-2" fill="white">
                                <use xlink:href="#path-1"></use>
                            </mask>
                            <g id="Clip-2"></g>
                            <path d="M47.5013617,14.0899149 C47.1597447,13.7213617 46.6734894,13.4890213 46.1329787,13.4890213 L41.555234,13.4890213 L41.555234,0.765957447 C41.555234,0.343148936 41.2120851,0 40.7892766,0 L7.2107234,0 C6.78740426,0 6.44476596,0.343148936 6.44476596,0.765957447 L6.44476596,13.4890213 L1.86702128,13.4890213 C1.32651064,13.4890213 0.840255319,13.7213617 0.498638298,14.0899149 C0.190468085,14.4229787 0,14.8673617 0,15.3560426 L0,46.1329787 C0,47.1622979 0.837702128,48 1.86702128,48 L46.1329787,48 C47.1622979,48 48,47.1622979 48,46.1329787 L48,15.3560426 C48,14.8673617 47.8095319,14.4229787 47.5013617,14.0899149 Z M7.2107234,17.3093617 C7.63365957,17.3093617 7.97668085,16.9667234 7.97668085,16.5434043 L7.97668085,1.53191489 L40.0233191,1.53191489 L40.0233191,16.5434043 C40.0233191,16.9667234 40.3658298,17.3093617 40.7892766,17.3093617 C41.2120851,17.3093617 41.555234,16.9667234 41.555234,16.5434043 L41.555234,15.0209362 L45.4368511,15.0209362 L24.8622128,36.4488511 C24.6312766,36.6887234 24.3251489,36.8208511 24,36.8208511 C23.6748511,36.8208511 23.3682128,36.6887234 23.1377872,36.4488511 L2.56314894,15.0209362 L6.44476596,15.0209362 L6.44476596,16.5434043 C6.44476596,16.9667234 6.78791489,17.3093617 7.2107234,17.3093617 Z M46.1329787,46.4680851 L1.86702128,46.4680851 C1.68548936,46.4680851 1.53191489,46.3145106 1.53191489,46.1329787 L1.53191489,16.158383 L15.5370638,30.7445106 L3.21395745,43.578766 C2.9207234,43.884 2.93068085,44.3687234 3.23591489,44.6619574 C3.38451064,44.8045532 3.57548936,44.8752766 3.76646809,44.8752766 C3.96740426,44.8752766 4.16834043,44.7965106 4.31897872,44.6394894 L16.5991915,31.8505532 L22.032766,37.5094468 C22.5548936,38.0535319 23.2534468,38.352766 24,38.352766 C24.7465532,38.352766 25.4451064,38.0535319 25.967234,37.5094468 L31.4013191,31.8505532 L36.2045106,36.852766 C36.3545106,37.0092766 36.5555745,37.0880426 36.7570213,37.0880426 C36.948,37.0880426 37.1389787,37.0173191 37.2875745,36.8747234 C37.5922979,36.5814894 37.6022553,36.096766 37.3095319,35.7915319 L32.4629362,30.7445106 L46.4680851,16.158383 L46.4680851,46.1329787 C46.4680851,46.3145106 46.3145106,46.4680851 46.1329787,46.4680851 Z" id="Fill-1" fill="#293033" mask="url(#mask-2)"></path>
                            <path d="M39.7470638,38.3308085 C39.4543404,38.0255745 38.9691064,38.015617 38.6638723,38.3088511 C38.358766,38.6015745 38.3491915,39.0862979 38.6419149,39.3914043 L43.6810213,44.6394894 C43.8316596,44.796 44.0325957,44.8752766 44.2335319,44.8752766 C44.4245106,44.8752766 44.6154894,44.8040426 44.7640851,44.6614468 C45.0693191,44.3687234 45.078766,43.884 44.7860426,43.578766 L39.7470638,38.3308085 Z" id="Fill-4" fill="#293033" mask="url(#mask-2)"></path>
                            <polyline id="Path-4" stroke="#293033" stroke-width="1.4" stroke-linecap="round" stroke-linejoin="round" mask="url(#mask-2)" points="19 9 28 9 22 24"></polyline>
                        </g>
                    </g>
                </g>
            </g>
        </g>
    </g>
</svg>