<?xml version="1.0" encoding="UTF-8"?>
<svg width="48px" height="45px" viewBox="0 0 48 45" version="1.1" xmlns="http://www.w3.org/2000/svg" xmlns:xlink="http://www.w3.org/1999/xlink">
    <!-- Generator: Sketch 51.2 (57519) - http://www.bohemiancoding.com/sketch -->
    <title>feature-icon</title>
    <desc>Created with Sketch.</desc>
    <defs></defs>
    <g id="-" stroke="none" stroke-width="1" fill="none" fill-rule="evenodd">
        <g transform="translate(-264.000000, -12994.000000)" fill="#293033" fill-rule="nonzero" id="FEATURES">
            <g transform="translate(0.000000, 12088.000000)">
                <g id="13" transform="translate(160.000000, 872.000000)">
                    <g id="feature-icon" transform="translate(104.000000, 34.000000)">
                        <path d="M26.3047149,34.8801702 L21.7089702,34.8801702 C21.2859574,34.8801702 20.9430128,35.2231149 20.9430128,35.6461277 C20.9430128,36.0691404 21.2859574,36.4120851 21.7089702,36.4120851 L26.3047149,36.4120851 C26.7277277,36.4120851 27.0706723,36.0691404 27.0706723,35.6461277 C27.0706723,35.2231149 26.7277277,34.8801702 26.3047149,34.8801702 Z" id="Shape"></path>
                        <path d="M47.9961191,38.6332596 C47.9930553,38.6022128 47.9877447,38.5722894 47.9812085,38.5428766 C47.9796766,38.536034 47.9777362,38.5293957 47.976,38.5226553 C47.9700766,38.4992681 47.963234,38.4762894 47.955166,38.4538213 C47.9526128,38.4466723 47.9501617,38.4396255 47.9474043,38.4325787 C47.9371915,38.4062298 47.9257532,38.3805957 47.912783,38.3557787 C47.9118638,38.3541447 47.9113532,38.3523064 47.910434,38.3505702 C47.9065532,38.343217 43.6594723,30.3488681 43.6594723,30.3488681 L43.6594723,9.48674043 C43.6594723,9.06372766 43.3165277,8.72078298 42.8935149,8.72078298 C42.4705021,8.72078298 42.1275574,9.06372766 42.1275574,9.48674043 L42.1275574,29.7737872 L5.8722383,29.7737872 L5.8722383,8.2176 C5.8722383,6.95050213 6.90301277,5.91972766 8.17011064,5.91972766 L38.5606468,5.91972766 C38.9836596,5.91972766 39.3266043,5.57678298 39.3266043,5.15377021 C39.3266043,4.73075745 38.9836596,4.38781277 38.5606468,4.38781277 L8.17021277,4.38781277 C6.05841702,4.38781277 4.34042553,6.10580426 4.34042553,8.2176 L4.34042553,30.3488681 L0.0934468085,38.343217 C0.0886468085,38.3523064 0.0880340426,38.3540426 0.0872170213,38.3557787 C0.0742468085,38.3805957 0.0628085106,38.4063319 0.0525957447,38.4326809 C0.0498382979,38.4396255 0.047387234,38.4466723 0.0449361702,38.4537191 C0.0368680851,38.4762894 0.0300255319,38.4992681 0.0241021277,38.5227574 C0.0223659574,38.5294979 0.0204255319,38.536034 0.0189957447,38.5428766 C0.0124595745,38.5722894 0.00714893617,38.6022128 0.00408510638,38.6327489 C0.00132765957,38.6584851 -5.68434189e-14,38.684017 -5.68434189e-14,38.7099574 L-5.68434189e-14,40.2418723 C-5.68434189e-14,42.3536681 1.71799149,44.0716596 3.82978723,44.0716596 L44.1702128,44.0716596 C46.2820085,44.0716596 48,42.3536681 48,40.2418723 L48,38.7099574 C48,38.684017 47.9986723,38.6584851 47.9961191,38.6332596 Z M5.56677447,31.3057021 L42.4331234,31.3057021 L45.9596936,37.944 L2.04020426,37.944 L5.56677447,31.3057021 Z M44.1702128,42.5397447 L3.82978723,42.5397447 C2.56268936,42.5397447 1.53191489,41.5089702 1.53191489,40.2418723 L1.53191489,39.4759149 L46.4680851,39.4759149 L46.4680851,40.2418723 C46.4680851,41.5089702 45.4373106,42.5397447 44.1702128,42.5397447 Z" id="Shape"></path>
                        <path d="M43.1489362,1.57940426 L45.3849191,1.57940426 L27.1037617,19.8604596 L21.444766,14.2014638 C21.145634,13.9023319 20.6606298,13.9023319 20.3616,14.2014638 L7.62862979,26.9343319 C7.32949787,27.2334638 7.32949787,27.7184681 7.62862979,28.0174979 C7.77814468,28.1670128 7.97422979,28.2418723 8.17021277,28.2418723 C8.36619574,28.2418723 8.56228085,28.1671149 8.71179574,28.0174979 L20.9030809,15.8262128 L26.5620766,21.4852085 C26.8612085,21.7843404 27.3462128,21.7843404 27.6452426,21.4852085 L46.4680851,2.66257021 L46.4680851,4.89855319 C46.4680851,5.32156596 46.8110298,5.66451064 47.2340426,5.66451064 C47.6570553,5.66451064 48,5.32156596 48,4.89855319 L48,0.813446809 C48,0.390434043 47.6570553,0.0474893617 47.2340426,0.0474893617 L43.1489362,0.0474893617 C42.7259234,0.0474893617 42.3829787,0.390434043 42.3829787,0.813446809 C42.3829787,1.23645957 42.7258213,1.57940426 43.1489362,1.57940426 Z" id="Shape"></path>
                    </g>
                </g>
            </g>
        </g>
    </g>
</svg>