<?xml version="1.0" encoding="UTF-8"?>
<svg width="48px" height="44px" viewBox="0 0 48 44" version="1.1" xmlns="http://www.w3.org/2000/svg" xmlns:xlink="http://www.w3.org/1999/xlink">
    <!-- Generator: Sketch 51.2 (57519) - http://www.bohemiancoding.com/sketch -->
    <title>feature-icon</title>
    <desc>Created with Sketch.</desc>
    <defs></defs>
    <g id="-" stroke="none" stroke-width="1" fill="none" fill-rule="evenodd">
        <g transform="translate(-552.000000, -12995.000000)" fill="#293033" fill-rule="nonzero" id="FEATURES">
            <g transform="translate(0.000000, 12088.000000)">
                <g id="14" transform="translate(448.000000, 872.000000)">
                    <g id="feature-icon" transform="translate(104.000000, 35.000000)">
                        <path d="M17.0872851,19.110434 C16.8707745,18.7469617 16.4006809,18.6277787 16.0373106,18.8443915 L7.11451915,24.1590128 C6.88258723,24.2970894 6.74042553,24.5470979 6.74042553,24.8170213 C6.74042553,25.0869447 6.88258723,25.3369532 7.11441702,25.4750298 L16.0372085,30.7896511 C16.1600681,30.8628766 16.2950809,30.8977021 16.4284596,30.8977021 C16.6894979,30.8977021 16.944,30.7641191 17.087183,30.5236085 C17.3036936,30.1601362 17.1845106,29.6900426 16.8211404,29.473634 L9.00316596,24.8170213 L16.8211404,20.1604085 C17.1846128,19.944 17.3037957,19.4739064 17.0872851,19.110434 Z" id="Shape"></path>
                        <path d="M30.912817,30.5236085 C31.0561021,30.7642213 31.3105021,30.8977021 31.5715404,30.8977021 C31.7049191,30.8977021 31.8399319,30.8628766 31.9627915,30.7896511 L40.885583,25.4750298 C41.1175149,25.3368511 41.2595745,25.0869447 41.2595745,24.8170213 C41.2595745,24.5470979 41.1174128,24.2970894 40.885583,24.1590128 L31.9627915,18.8443915 C31.5994213,18.6278809 31.1291234,18.7469617 30.912817,19.110434 C30.6963064,19.4739064 30.8154894,19.944 31.1788596,20.1604085 L38.996834,24.8170213 L31.1788596,29.473634 C30.8153872,29.6900426 30.6962043,30.1601362 30.912817,30.5236085 Z" id="Shape"></path>
                        <path d="M26.9331064,19.0754043 L19.7950979,29.7046468 C19.5592851,30.0557617 19.6527319,30.5316766 20.0039489,30.7675915 C20.1350809,30.8556255 20.2834723,30.8977021 20.4303319,30.8977021 C20.6769702,30.8977021 20.9191149,30.7787234 21.0668936,30.5586383 L28.2049021,19.9293957 C28.4407149,19.5782809 28.3472681,19.102366 27.9960511,18.8664511 C27.6446298,18.6306383 27.168817,18.7242894 26.9331064,19.0754043 Z" id="Shape"></path>
                        <path d="M47.2340426,0.0510638298 L0.765957447,0.0510638298 C0.342842553,0.0510638298 0,0.394008511 0,0.817021277 L0,42.6893617 C0,43.1123745 0.342842553,43.4553191 0.765957447,43.4553191 L47.2340426,43.4553191 C47.6571574,43.4553191 48,43.1123745 48,42.6893617 L48,34.5191489 C48,34.0961362 47.6571574,33.7531915 47.2340426,33.7531915 C46.8109277,33.7531915 46.4680851,34.0961362 46.4680851,34.5191489 L46.4680851,41.9234043 L1.53191489,41.9234043 L1.53191489,7.7106383 L46.4680851,7.7106383 L46.4680851,31.4553191 C46.4680851,31.8783319 46.8109277,32.2212766 47.2340426,32.2212766 C47.6571574,32.2212766 48,31.8783319 48,31.4553191 L48,0.817021277 C48,0.394008511 47.6571574,0.0510638298 47.2340426,0.0510638298 Z M1.53191489,1.58297872 L29.8723404,1.58297872 L29.8723404,6.1787234 L1.53191489,6.1787234 L1.53191489,1.58297872 Z M31.4042553,6.1787234 L31.4042553,1.58297872 L46.4680851,1.58297872 L46.4680851,6.1787234 L31.4042553,6.1787234 Z" id="Shape"></path>
                        <path d="M38.9617021,3.06382979 C38.511217,3.06382979 38.1446809,3.43036596 38.1446809,3.88085106 C38.1446809,4.33133617 38.511217,4.69787234 38.9617021,4.69787234 C39.4121872,4.69787234 39.7787234,4.33133617 39.7787234,3.88085106 C39.7787234,3.43036596 39.4121872,3.06382979 38.9617021,3.06382979 Z" id="Shape"></path>
                        <path d="M34.7744681,3.06382979 C34.323983,3.06382979 33.9574468,3.43036596 33.9574468,3.88085106 C33.9574468,4.33133617 34.323983,4.69787234 34.7744681,4.69787234 C35.2249532,4.69787234 35.5914894,4.33133617 35.5914894,3.88085106 C35.5914894,3.43036596 35.2249532,3.06382979 34.7744681,3.06382979 Z" id="Shape"></path>
                        <path d="M43.1489362,3.06382979 C42.6984511,3.06382979 42.3319149,3.43036596 42.3319149,3.88085106 C42.3319149,4.33133617 42.6984511,4.69787234 43.1489362,4.69787234 C43.5994213,4.69787234 43.9659574,4.33133617 43.9659574,3.88085106 C43.9659574,3.43036596 43.5994213,3.06382979 43.1489362,3.06382979 Z" id="Shape"></path>
                    </g>
                </g>
            </g>
        </g>
    </g>
</svg>