<?xml version="1.0" encoding="UTF-8"?>
<svg width="48px" height="48px" viewBox="0 0 48 48" version="1.1" xmlns="http://www.w3.org/2000/svg" xmlns:xlink="http://www.w3.org/1999/xlink">
    <!-- Generator: Sketch 51.2 (57519) - http://www.bohemiancoding.com/sketch -->
    <title>feature-icon</title>
    <desc>Created with Sketch.</desc>
    <defs></defs>
    <g id="-" stroke="none" stroke-width="1" fill="none" fill-rule="evenodd">
        <g transform="translate(-840.000000, -12992.000000)" fill="#293033" fill-rule="nonzero" id="FEATURES">
            <g transform="translate(0.000000, 12088.000000)">
                <g id="15" transform="translate(736.000000, 872.000000)">
                    <g id="feature-icon" transform="translate(104.000000, 32.000000)">
                        <path d="M42.6458437,40.3500937 L41.8572188,40.033875 C45.823125,35.6221875 48,29.9555625 48,24 C48,19.1277187 46.527,14.4396562 43.8432187,10.4986875 C43.8106875,10.4346562 43.770375,10.377 43.7235,10.3266562 C42.5477812,8.632125 41.1481875,7.0779375 39.5420625,5.71171875 C39.2232188,5.4405 38.745,5.479125 38.4737813,5.79796875 C38.2025625,6.1168125 38.2411875,6.59521875 38.5599375,6.86634375 C39.8484375,7.962375 40.9952813,9.1875 41.9901563,10.5134062 C40.3859063,11.1404062 38.4602813,11.6714063 36.3105938,12.0909375 C35.7171563,10.3228125 34.9877813,8.6743125 34.1303438,7.18696875 C32.9746875,5.182125 31.6454063,3.56775 30.1966875,2.38040625 C32.4514688,3.02503125 34.599375,4.02384375 36.5704688,5.355375 C36.9173438,5.58946875 37.3883438,5.4984375 37.6227188,5.1515625 C37.857,4.80478125 37.7657813,4.3336875 37.4189063,4.0993125 C33.449625,1.4175 28.809375,0 24,0 C17.5892812,0 11.5624688,2.496375 7.0295625,7.0295625 C2.496375,11.5624688 0,17.5894688 0,24 C0,29.96325 2.179875,35.630625 6.15225,40.0439062 L5.3735625,40.348875 C5.08678125,40.4524688 2.64825,41.425125 2.64825,44.5257187 L2.64825,47.241375 C2.64825,47.6600625 2.9874375,48 3.406125,48 L7.765875,48 L8.44453125,48 L9.2529375,48 L13.130625,48 L14.5618125,48 C14.598375,48 14.6340937,47.9965312 14.66925,47.9914687 C14.7045,47.9965312 14.740125,48 14.7766875,48 L17.8605,48 C18.2791875,48 18.618375,47.6608125 18.618375,47.242125 C18.618375,46.8234375 18.2790937,46.48425 17.8605,46.48425 L15.5345625,46.48425 L15.5345625,43.8447187 C15.5345625,41.0599687 17.7219375,40.2589687 17.81025,40.2278437 C17.8219687,40.2239062 17.8335937,40.2196875 17.8452187,40.2150937 L21.5359687,38.7696562 C21.5439375,38.7782812 21.5514375,38.7872812 21.559875,38.7955312 L23.5213125,40.7059687 C23.6629687,40.8437812 23.8528125,40.9209375 24.0501562,40.9209375 C24.0540937,40.9209375 24.058125,40.9209375 24.0620625,40.9208437 C24.2637187,40.91775 24.456,40.8342187 24.5957812,40.6889062 L26.479125,38.7347812 L30.1649062,40.2128437 C30.1783125,40.2182812 30.187125,40.2216562 30.2008125,40.2261562 C30.2939062,40.258875 32.4815625,41.0601562 32.4815625,43.8447187 L32.4815625,46.48425 L26.938125,46.48425 L21.0777187,46.48425 L20.2291875,46.48425 C19.8105,46.48425 19.4713125,46.8235313 19.4713125,47.242125 C19.4713125,47.6608125 19.8105937,48 20.2291875,48 L21.0777187,48 L26.938125,48 L33.2395312,48 L33.239625,48 L33.2397187,48 L34.2066562,48 L34.8852187,48 L35.6938125,48 L39.5713125,48 L44.6099062,48 C45.0285937,48 45.3677812,47.655375 45.3677812,47.2367812 L45.3677812,44.5257187 C45.3679688,41.4370313 42.9478125,40.459875 42.6458437,40.3500937 Z M40.352625,39.4305 L39.6055312,39.130875 L39.6055312,38.699625 C40.4311875,38.2154062 41.0657813,37.4398125 41.3672812,36.5146875 C42.469875,36.4275937 43.3408125,35.5044375 43.3408125,34.3799062 C43.3408125,33.7110937 43.0325625,33.1133437 42.5511562,32.7197812 L42.5511562,31.3727812 C42.5511562,28.7757187 40.6022812,26.6266875 38.0905312,26.30775 C38.119125,25.7939062 38.1389062,25.2762187 38.1484687,24.757875 L46.4701875,24.757875 C46.2880312,30.2438437 44.1330938,35.4256875 40.352625,39.4305 Z M37.6164375,37.7243437 L36.9252187,37.7243437 C35.586,37.7243437 34.4965312,36.634875 34.4965312,35.2958437 L34.4965312,33.2905312 C35.4838125,33.183375 37.2325312,32.8382812 38.5798125,31.7130937 C38.8815937,32.2306875 39.3485625,32.7904687 40.045125,33.117375 L40.045125,35.29575 C40.0450312,36.634875 38.9555625,37.7243437 37.6164375,37.7243437 Z M38.089875,39.2106562 L38.089875,39.6308438 L37.245375,40.5070313 L36.451875,39.73425 L36.451875,39.2105625 C36.6072188,39.2292188 36.765,39.24 36.9253125,39.24 L37.6165313,39.24 C37.7768437,39.2400937 37.9344375,39.2293125 38.089875,39.2106562 Z M33.7410937,31.824 C33.74025,31.824 33.7394063,31.824 33.7385625,31.824 C33.7125,31.824 33.686625,31.8254063 33.6612188,31.8279375 C33.6530625,31.8287813 33.6450938,31.8304688 33.6369375,31.8315938 C33.619875,31.8338437 33.6028125,31.8359063 33.586125,31.839375 C33.5746875,31.841625 33.5637188,31.8450938 33.5524688,31.848 C33.5394375,31.8512813 33.5263125,31.8540938 33.5136563,31.8580313 C33.5054063,31.8605625 33.497625,31.8640313 33.4894688,31.8668438 L33.4894688,31.372875 C33.4894688,29.3923125 35.10075,27.781125 37.0813125,27.781125 L37.44375,27.781125 C39.4242188,27.781125 41.0352188,29.3923125 41.0352188,31.372875 L41.0352188,31.8606563 C41.0209688,31.8560625 41.0065313,31.8525 40.9919063,31.8488438 C40.9849688,31.846875 40.9780313,31.844625 40.971,31.8428438 C39.9144375,31.6025625 39.568875,30.1924688 39.5663438,30.1817813 C39.500625,29.8913438 39.2708438,29.6663438 38.979,29.6067187 C38.6871563,29.5469062 38.387625,29.6637188 38.2130625,29.9050313 C36.8406563,31.80225 33.7812188,31.824 33.7410937,31.824 Z M41.5607812,34.8906562 L41.5607812,33.8693437 C41.7203437,33.98325 41.8249687,34.1695312 41.8249687,34.3800938 C41.8249687,34.5906562 41.7203437,34.77675 41.5607812,34.8906562 Z M42.8796562,11.788875 C45.075,15.180375 46.3320937,19.1285625 46.47,23.2420313 L38.1480937,23.2420313 C38.0865937,19.8305625 37.609875,16.5402188 36.7598437,13.5436875 C39.09,13.0808437 41.1675937,12.489375 42.8796562,11.788875 Z M36.6321563,23.2422187 L28.8751875,23.2422187 C28.8743438,23.242125 28.8735938,23.2422187 28.8728438,23.2422187 C27.838875,22.0992187 26.385375,21.3440625 24.757875,21.2184375 L24.757875,14.7009375 C28.4770313,14.6639063 32.0660625,14.354625 35.2636875,13.8171563 C36.1004063,16.7151562 36.57,19.9152188 36.6321563,23.2422187 Z M29.9465625,31.1564063 C29.9465625,31.6021875 29.6454375,31.9780313 29.2360312,32.093625 L29.2360312,30.2189062 C29.6454375,30.3346875 29.9465625,30.710625 29.9465625,31.1564063 Z M24.7577813,1.55784375 C27.7739063,1.87996875 30.6115313,4.11778125 32.8170937,7.94390625 C33.5910937,9.2865 34.2556875,10.7698125 34.8035625,12.3609375 C31.747875,12.8612812 28.3185938,13.1492813 24.7577813,13.185 L24.7577813,1.55784375 Z M24.2772187,22.71375 C26.8588125,22.71375 28.959,24.814125 28.959,27.3958125 L28.959,28.3219687 C28.9539375,28.3179375 28.9485938,28.314375 28.9434375,28.3103437 C28.9324688,28.3017187 28.9213125,28.2932812 28.9097813,28.2853125 C28.900875,28.279125 28.8916875,28.2734062 28.8825,28.2675937 C28.8711563,28.260375 28.8599063,28.25325 28.8480938,28.2466875 C28.8373125,28.2405937 28.8261563,28.23525 28.8150938,28.2297187 C28.8045,28.2244687 28.794,28.219125 28.783125,28.21425 C28.7698125,28.2083437 28.7560313,28.2034687 28.7424375,28.1983125 C28.7329688,28.19475 28.7235937,28.1910937 28.7140313,28.1879062 C28.69875,28.1828437 28.683,28.1788125 28.6673438,28.1747812 C28.6604063,28.1728125 28.6535625,28.1704687 28.6464375,28.1687812 C27.2067188,27.8414062 26.750625,25.96425 26.7467813,25.9479375 C26.6810625,25.6575 26.4512813,25.4325 26.1594375,25.372875 C25.8676875,25.312875 25.5680625,25.429875 25.3935,25.6711875 C23.6187188,28.1248125 19.6981875,28.1499375 19.6464375,28.1499375 C19.6463438,28.1499375 19.64625,28.1499375 19.64625,28.1499375 C19.6452188,28.1499375 19.6444688,28.1499375 19.6435313,28.1499375 C19.6174688,28.1499375 19.5915938,28.15125 19.5661875,28.1537812 C19.5582188,28.1547187 19.5505313,28.1563125 19.5425625,28.1574375 C19.5254063,28.1597812 19.5079688,28.1618437 19.4910938,28.1652187 C19.4803125,28.1674687 19.4698125,28.1708437 19.4590313,28.1734687 C19.4455313,28.1768437 19.43175,28.1798437 19.418625,28.183875 C19.4063438,28.1877187 19.3945312,28.1926875 19.3825313,28.1970937 C19.3715625,28.201125 19.360125,28.2046875 19.34925,28.2091875 C19.335375,28.2150937 19.3221563,28.2220312 19.3089375,28.2285 C19.3003125,28.2327187 19.2915938,28.236375 19.2831563,28.2409687 C19.2694688,28.2482812 19.2567188,28.2567187 19.2435938,28.2647812 C19.2360938,28.2695625 19.2282188,28.2737812 19.2207188,28.27875 C19.2085313,28.287 19.197,28.2961875 19.1851875,28.3051875 C19.1775938,28.3109062 19.1697188,28.3161562 19.1623125,28.32225 C19.155375,28.3279687 19.1489063,28.3344375 19.1420625,28.3404375 L19.1420625,27.3957187 C19.1420625,24.8140312 21.24225,22.71375 23.8238438,22.71375 L24.2772187,22.71375 Z M11.3678438,23.242125 C11.43,19.9145625 11.8997813,16.7138437 12.7366875,13.8155625 C15.9388125,14.3537812 19.5316875,14.6637187 23.242125,14.7010312 L23.242125,21.2262187 C21.6533437,21.375 20.2370625,22.1251875 19.2240937,23.2471875 C19.1965312,23.2441875 19.1685,23.2422187 19.1400937,23.2422187 L11.3678438,23.2422187 L11.3678438,23.242125 Z M18.8856563,30.211125 L18.8856563,32.1016875 C18.4606875,31.9965937 18.1444687,31.6133437 18.1444687,31.1564062 C18.144375,30.6995625 18.4606875,30.3163125 18.8856563,30.211125 Z M23.242125,1.55784375 L23.242125,13.185 C19.68975,13.149 16.25775,12.859875 13.1971875,12.3585938 C13.7449687,10.7684062 14.4092812,9.28603125 15.1829063,7.94390625 C17.3884688,4.11778125 20.2260938,1.87996875 23.242125,1.55784375 Z M17.7949687,2.3870625 C16.3495312,3.5739375 15.0230625,5.18578125 13.8695625,7.186875 C13.0124062,8.67384375 12.2833125,10.3215937 11.6899687,12.08925 C9.543,11.6702813 7.62046875,11.1405 6.01921875,10.5159375 C8.92190625,6.65484375 13.0375313,3.7550625 17.7949687,2.3870625 Z M5.1271875,11.7924375 C6.8349375,12.4903125 8.91290625,13.0795312 11.2408125,13.5419063 C10.3902188,16.5388125 9.9135,19.8299063 9.8518125,23.242125 L1.53,23.242125 C1.67015625,19.0321875 2.9728125,15.1118438 5.1271875,11.7924375 Z M10.0109063,39.21075 C10.16625,39.2294063 10.3240313,39.2400937 10.4843438,39.2400937 L11.1756562,39.2400937 C11.3357813,39.2400937 11.4935625,39.2294063 11.6488125,39.2106562 L11.6488125,39.63075 L10.8045,40.5069375 L10.0109062,39.7341562 L10.0109062,39.21075 Z M11.1756562,37.7243437 L10.4843437,37.7243437 C9.145125,37.7243437 8.05565625,36.634875 8.05565625,35.29575 L8.05565625,33.291375 C9.04275,33.1845937 10.7908125,32.8389375 12.1389375,31.7130937 C12.4408125,32.2307812 12.9076875,32.7906562 13.6041562,33.1175625 L13.6041562,35.2958437 C13.6040625,36.634875 12.5146875,37.7243437 11.1756562,37.7243437 Z M13.12575,30.1816875 C13.0600313,29.89125 12.83025,29.66625 12.5384063,29.606625 C12.2465625,29.5468125 11.9469375,29.663625 11.7725625,29.9049375 C10.399125,31.8032812 7.33725,31.8240937 7.3003125,31.8240937 C7.299375,31.8240937 7.298625,31.8240937 7.29778125,31.8240937 C7.27171875,31.8240937 7.24584375,31.8254062 7.2204375,31.8279375 C7.21246875,31.828875 7.20478125,31.8304687 7.1968125,31.8315937 C7.17965625,31.8338437 7.16221875,31.836 7.14534375,31.839375 C7.1345625,31.841625 7.1240625,31.845 7.11328125,31.847625 C7.09978125,31.851 7.08609375,31.854 7.072875,31.8580312 C7.06471875,31.8605625 7.05703125,31.8640313 7.04896875,31.8668437 L7.04896875,31.372875 C7.04896875,29.3923125 8.66015625,27.7810312 10.6407188,27.7810312 L11.00325,27.7810312 C12.9837188,27.7810312 14.5947188,29.3923125 14.5947188,31.372875 L14.5947188,31.86075 L14.5945313,31.86075 C14.58,31.8559687 14.5649062,31.8524062 14.5500938,31.8485625 C14.5434375,31.846875 14.5369688,31.8445312 14.5302188,31.8429375 C13.4738438,31.6026562 13.1282813,30.1922812 13.12575,30.1816875 Z M1.52990625,24.757875 L9.851625,24.757875 C9.86109375,25.279875 9.88125,25.8012188 9.91003125,26.3183437 C7.4386875,26.67375 5.5329375,28.8045 5.5329375,31.3727812 L5.5329375,32.713875 C5.04684375,33.10725 4.735125,33.707625 4.735125,34.3799063 C4.735125,35.5127813 5.61946875,36.4408125 6.733875,36.516 C7.035375,37.4405625 7.6696875,38.2155 8.4950625,38.699625 L8.4950625,39.1264688 L7.66715625,39.4506563 C3.8739375,35.44275 1.71215625,30.2556562 1.52990625,24.757875 Z M6.53971875,33.8524687 L6.53971875,34.9073438 C6.36628125,34.7955938 6.250875,34.6011563 6.250875,34.3800938 C6.250875,34.1588437 6.36628125,33.9644062 6.53971875,33.8524687 Z M14.018625,43.8448125 L14.018625,46.48425 L13.1304375,46.48425 L9.25284375,46.48425 L8.4444375,46.48425 L7.765875,46.48425 L4.16409375,46.48425 L4.16409375,44.5257187 C4.16409375,42.4126875 5.81596875,41.8003125 5.8801875,41.7775312 C5.89190625,41.7735937 5.903625,41.769375 5.91515625,41.7647812 L8.7736875,40.6453125 L10.292625,42.1246875 C10.4341875,42.2625937 10.6239375,42.3396562 10.821375,42.3396562 C10.8253125,42.3396562 10.8293437,42.3396562 10.833375,42.3395625 C11.0350312,42.3364687 11.2272187,42.2529375 11.367,42.107625 L12.80175,40.6186875 L14.5752188,41.3297812 C14.2389375,42.018 14.018625,42.8515313 14.018625,43.8448125 Z M21.3309375,37.222125 L17.3083125,38.7974063 C16.7960625,38.9736563 16.087125,39.38025 15.45825,40.05075 L13.1644687,39.130875 L13.1644687,38.6998125 C13.9903125,38.2155 14.6248125,37.4399062 14.9263125,36.5146875 C16.029,36.4275937 16.9000312,35.5044375 16.9000312,34.3799062 C16.9000312,33.7110937 16.5916875,33.1133437 16.1102812,32.7197812 L16.1102812,31.3727813 C16.1102812,28.699125 14.0449687,26.5002188 11.42625,26.284125 C11.397375,25.7785313 11.3774062,25.2685312 11.36775,24.7577813 L18.217125,24.7577813 C17.83875,25.5586875 17.626125,26.4525937 17.626125,27.395625 L17.626125,29.164125 C17.0207812,29.6189062 16.6284375,30.3425625 16.6284375,31.1564062 C16.6284375,32.5167187 17.7250313,33.6252187 19.0806563,33.6460312 C19.4363438,34.8473437 20.255625,35.8510312 21.33075,36.4490625 L21.33075,37.222125 L21.3309375,37.222125 Z M15.1199062,34.89075 L15.1199062,33.8690625 C15.2795625,33.9830625 15.3842812,34.1693437 15.3842812,34.38 C15.3842812,34.5906562 15.2795625,34.7768437 15.1199062,34.89075 Z M25.2750937,37.7510625 C25.2750937,37.7520938 25.2750937,37.753125 25.2750937,37.753875 L25.2750937,37.7998125 L24.0332813,39.0884062 L22.8466875,37.9326563 L22.8466875,36.9790312 C23.1012188,37.0215 23.3622188,37.0446562 23.62875,37.0446562 L24.4933125,37.0446562 C24.7596562,37.0446562 25.0205625,37.0215 25.2750937,36.9792188 L25.2750937,37.7510625 Z M24.4933125,35.529 L23.62875,35.529 C21.8491875,35.529 20.4014063,34.0813125 20.4014063,32.30175 L20.4014063,29.6259375 C21.6109687,29.5145625 24.0027187,29.0940937 25.74975,27.52575 C26.1184687,28.2235312 26.7365625,29.033625 27.720375,29.4538125 L27.720375,32.3016562 C27.7202812,34.0813125 26.2726875,35.529 24.4933125,35.529 Z M32.5625625,40.0559062 C31.9337813,39.3837187 31.224,38.9757187 30.710625,38.7985312 L26.79075,37.2264375 L26.79075,36.4490625 C27.8661562,35.8509375 28.68525,34.8469687 29.0408437,33.6452812 C30.382125,33.6081563 31.462125,32.5063125 31.462125,31.1565 C31.462125,30.3473438 31.074,29.6273437 30.4745625,29.1720937 L30.4745625,27.3957187 C30.4745625,26.4527812 30.2620312,25.5587812 29.8835625,24.757875 L36.6319687,24.757875 C36.622125,25.2706875 36.6020625,25.78275 36.5728125,26.2907812 C33.994125,26.546625 31.9734375,28.7280937 31.9734375,31.3727812 L31.9734375,32.7140625 C31.4874375,33.1073437 31.1758125,33.7077187 31.1758125,34.38 C31.1758125,35.5129687 32.0601563,36.441 33.1745625,36.5160938 C33.4760625,37.4406563 34.1104688,38.2155937 34.9358438,38.6997188 L34.9358438,39.1265625 L32.5625625,40.0559062 Z M32.9807812,33.8524687 L32.9807812,34.9073438 C32.80725,34.7955938 32.6919375,34.6011563 32.6919375,34.3800938 C32.6919375,34.1588437 32.8073438,33.9643125 32.9807812,33.8524687 Z M43.8523125,46.48425 L39.5715,46.48425 L35.694,46.48425 L34.8854063,46.48425 L34.2068438,46.48425 L33.9975938,46.48425 L33.9975938,43.8447187 C33.9975938,42.8554687 33.77925,42.02475 33.445125,41.3382187 L35.21475,40.6452187 L36.7335,42.1245937 C36.8750625,42.2625 37.0648125,42.3396562 37.2623437,42.3396562 C37.2662812,42.3396562 37.2703125,42.3396562 37.27425,42.3395625 C37.4759063,42.3364687 37.6680938,42.2529375 37.8079688,42.107625 L39.2428125,40.6186875 L42.09525,41.7624375 C42.1085625,41.767875 42.1159688,41.7706875 42.12975,41.775375 C42.2000625,41.8003125 43.8523125,42.4127812 43.8523125,44.5258125 L43.8523125,46.48425 Z" id="Shape"></path>
                    </g>
                </g>
            </g>
        </g>
    </g>
</svg>