<?xml version="1.0" encoding="UTF-8"?>
<svg width="48px" height="42px" viewBox="0 0 48 42" version="1.1" xmlns="http://www.w3.org/2000/svg" xmlns:xlink="http://www.w3.org/1999/xlink">
    <!-- Generator: Sketch 51.2 (57519) - http://www.bohemiancoding.com/sketch -->
    <title>feature-icon</title>
    <desc>Created with Sketch.</desc>
    <defs></defs>
    <g id="-" stroke="none" stroke-width="1" fill="none" fill-rule="evenodd">
        <g transform="translate(-1128.000000, -12997.000000)" fill="#293033" fill-rule="nonzero" id="FEATURES">
            <g transform="translate(0.000000, 12088.000000)">
                <g id="16" transform="translate(1024.000000, 872.000000)">
                    <g id="feature-icon" transform="translate(104.000000, 37.000000)">
                        <path d="M43.9148936,3.31914894 L27.0638298,3.31914894 C26.6407149,3.31914894 26.2978723,3.66209362 26.2978723,4.08510638 C26.2978723,4.50811915 26.6407149,4.85106383 27.0638298,4.85106383 L43.9148936,4.85106383 C45.3227234,4.85106383 46.4680851,5.99642553 46.4680851,7.40425532 L46.4680851,8.30379574 C45.7681021,7.74168511 44.8804085,7.40425532 43.9148936,7.40425532 L24.7659574,7.40425532 L24.7659574,4.08510638 C24.7659574,1.83257872 22.9333787,0 20.6808511,0 L4.08510638,0 C1.83257872,0 0,1.83257872 0,4.08510638 L0,40.4886128 C0,40.9116255 0.342842553,41.2545702 0.765957447,41.2545702 L47.2340426,41.2545702 C47.6571574,41.2545702 48,40.9116255 48,40.4886128 L48,7.40425532 C48,5.15172766 46.1674213,3.31914894 43.9148936,3.31914894 Z M46.4680851,39.7227574 L1.53191489,39.7227574 L1.53191489,4.08510638 C1.53191489,2.6772766 2.6772766,1.53191489 4.08510638,1.53191489 L20.6808511,1.53191489 C22.0886809,1.53191489 23.2340426,2.6772766 23.2340426,4.08510638 L23.2340426,8.17021277 C23.2340426,8.59322553 23.5768851,8.93617021 24,8.93617021 L43.9148936,8.93617021 C45.3227234,8.93617021 46.4680851,10.0815319 46.4680851,11.4893617 L46.4680851,39.7227574 Z" id="Shape"></path>
                        <path d="M15.2839788,28.1522562 C14.8598496,28.328536 14.3740642,28.1262371 14.1985065,27.7017996 C13.6677771,26.4184046 13.3985994,25.0577653 13.3985994,23.6574468 C13.3985994,17.812731 18.1193494,13.0860258 23.9489362,13.0860258 C26.4314065,13.0860258 28.9145259,13.9555535 30.9189991,15.7243684 L30.9189991,13.832613 C30.9189991,13.3727244 31.2910451,13 31.7497342,13 C32.2085856,13 32.5804694,13.3727244 32.5804694,13.832613 L32.5804694,17.8042748 C32.6054564,18.2797749 32.2215658,18.6822587 31.7497342,18.6822587 L27.7406257,18.6822587 C27.2817743,18.6822587 26.9098905,18.3095343 26.9098905,17.8496457 C26.9098905,17.389757 27.2817743,17.0170327 27.7406257,17.0170327 L29.8708449,17.0170327 C28.2945573,15.605656 26.2321599,14.7512519 23.9489362,14.7512519 C19.0355919,14.7512519 15.0600697,18.7352727 15.0600697,23.6574468 C15.0600697,24.8377408 15.2865749,25.9840473 15.7334196,27.0641676 C15.9089773,27.4890929 15.7079458,27.976139 15.2839788,28.1522562 Z M33.6993659,19.613094 C33.5236459,19.1881687 33.0376983,18.9866829 32.6138935,19.1626374 C32.1899265,19.3387546 31.9888951,19.8259633 32.1644528,20.250726 C32.6112975,21.3308463 32.8378026,22.4771528 32.8378026,23.6574468 C32.8378026,28.5796209 28.8622804,32.5636417 23.9489362,32.5636417 C21.6657124,32.5636417 19.603315,31.7092376 18.0270275,30.297861 L20.1572466,30.297861 C20.616098,30.297861 20.9879818,29.9249739 20.9879818,29.4652479 C20.9879818,29.0053594 20.616098,28.6326349 20.1572466,28.6326349 L16.1481381,28.6326349 C15.67728,28.6326349 15.2922537,29.0313785 15.3174029,29.5106188 L15.3174029,33.4822806 C15.3174029,33.9421692 15.6892868,34.3148936 16.1481381,34.3148936 C16.6068272,34.3148936 16.9788733,33.9421692 16.9788733,33.4822806 L16.9788733,31.5905252 C18.9833464,33.3593401 21.4664658,34.2288678 23.9489362,34.2288678 C29.7785229,34.2288678 34.499273,29.5021626 34.499273,23.6574468 C34.499273,22.2571283 34.2300953,20.896489 33.6993659,19.613094 Z" id="Shape"></path>
                    </g>
                </g>
            </g>
        </g>
    </g>
</svg>