<?xml version="1.0" encoding="UTF-8"?>
<svg width="48px" height="44px" viewBox="0 0 48 44" version="1.1" xmlns="http://www.w3.org/2000/svg" xmlns:xlink="http://www.w3.org/1999/xlink">
    <!-- Generator: Sketch 51.2 (57519) - http://www.bohemiancoding.com/sketch -->
    <title>feature-icon</title>
    <desc>Created with Sketch.</desc>
    <defs></defs>
    <g id="-" stroke="none" stroke-width="1" fill="none" fill-rule="evenodd">
        <g transform="translate(-552.000000, -12370.000000)" fill="#293033" fill-rule="nonzero" id="FEATURES">
            <g transform="translate(0.000000, 12088.000000)">
                <g id="02" transform="translate(448.000000, 248.000000)">
                    <g id="feature-icon" transform="translate(104.000000, 34.000000)">
                        <path d="M47.2340426,0.0510638298 L0.765957447,0.0510638298 C0.342842553,0.0510638298 0,0.394008511 0,0.817021277 L0,42.6893617 C0,43.1123745 0.342842553,43.4553191 0.765957447,43.4553191 L47.2340426,43.4553191 C47.6571574,43.4553191 48,43.1123745 48,42.6893617 L48,34.5191489 C48,34.0961362 47.6571574,33.7531915 47.2340426,33.7531915 C46.8109277,33.7531915 46.4680851,34.0961362 46.4680851,34.5191489 L46.4680851,41.9234043 L1.53191489,41.9234043 L1.53191489,7.7106383 L46.4680851,7.7106383 L46.4680851,31.4553191 C46.4680851,31.8783319 46.8109277,32.2212766 47.2340426,32.2212766 C47.6571574,32.2212766 48,31.8783319 48,31.4553191 L48,0.817021277 C48,0.394008511 47.6571574,0.0510638298 47.2340426,0.0510638298 Z M1.53191489,1.58297872 L29.8723404,1.58297872 L29.8723404,6.1787234 L1.53191489,6.1787234 L1.53191489,1.58297872 Z M31.4042553,6.1787234 L31.4042553,1.58297872 L46.4680851,1.58297872 L46.4680851,6.1787234 L31.4042553,6.1787234 Z" id="Shape"></path>
                        <path d="M38.9617021,3.06382979 C38.511217,3.06382979 38.1446809,3.43036596 38.1446809,3.88085106 C38.1446809,4.33133617 38.511217,4.69787234 38.9617021,4.69787234 C39.4121872,4.69787234 39.7787234,4.33133617 39.7787234,3.88085106 C39.7787234,3.43036596 39.4121872,3.06382979 38.9617021,3.06382979 Z" id="Shape"></path>
                        <path d="M34.7744681,3.06382979 C34.323983,3.06382979 33.9574468,3.43036596 33.9574468,3.88085106 C33.9574468,4.33133617 34.323983,4.69787234 34.7744681,4.69787234 C35.2249532,4.69787234 35.5914894,4.33133617 35.5914894,3.88085106 C35.5914894,3.43036596 35.2249532,3.06382979 34.7744681,3.06382979 Z" id="Shape"></path>
                        <path d="M43.1489362,3.06382979 C42.6984511,3.06382979 42.3319149,3.43036596 42.3319149,3.88085106 C42.3319149,4.33133617 42.6984511,4.69787234 43.1489362,4.69787234 C43.5994213,4.69787234 43.9659574,4.33133617 43.9659574,3.88085106 C43.9659574,3.43036596 43.5994213,3.06382979 43.1489362,3.06382979 Z" id="Shape"></path>
                        <path d="M27.5484255,31.2978383 C27.5484255,31.5009702 27.6291064,31.6958298 27.7726979,31.8394213 L33.7515574,37.8181787 C33.8952511,37.9618723 34.0900085,38.0425532 34.2932426,38.0425532 C34.4964766,38.0425532 34.6911319,37.9618723 34.8349277,37.8181787 L37.0013617,35.6517447 C37.3004936,35.3526128 37.3004936,34.8676085 37.0013617,34.5685787 L31.0226043,28.5898213 C30.7234723,28.2906894 30.2385702,28.2906894 29.9393362,28.5898213 L29.3977532,29.1314043 L28.2916085,28.0252596 C31.6438468,24.1174468 31.4728851,18.2078298 27.7729021,14.5078468 C25.8921191,12.6270638 23.3916255,11.5913872 20.7319149,11.5913872 C18.0722043,11.5913872 15.5717106,12.627166 13.6909277,14.5078468 C9.80854468,18.3902298 9.80854468,24.7074383 13.6909277,28.5898213 C15.5717106,30.4706043 18.0722043,31.5062809 20.7319149,31.5062809 C23.1346723,31.5062809 25.4073191,30.660766 27.2106894,29.1108766 L28.314383,30.2146723 L27.7728,30.7562553 C27.6291064,30.8999489 27.5484255,31.0947064 27.5484255,31.2978383 Z M14.7740936,27.5065532 C11.4889532,24.2214128 11.4889532,18.8761532 14.7740936,15.5910128 C16.3654468,13.9996596 18.4813277,13.1232 20.7318128,13.1232 C22.9822979,13.1232 25.0981787,13.9996596 26.6895319,15.5910128 C29.9746723,18.8761532 29.9746723,24.2214128 26.6895319,27.5065532 C25.0981787,29.0979064 22.9822979,29.974366 20.7318128,29.974366 C18.4813277,29.974366 16.3654468,29.0979064 14.7740936,27.5065532 Z M35.3765106,35.1102638 L34.2933447,36.1935319 L29.3976511,31.2979404 L29.9390298,30.7565617 C29.9395404,30.7560511 30.4809191,30.2146723 30.4809191,30.2146723 L35.3765106,35.1102638 Z" id="Shape"></path>
                        <path d="M25.606366,16.674383 C24.3042383,15.3723574 22.5731745,14.655217 20.7318128,14.655217 C18.8904511,14.655217 17.1593872,15.3722553 15.8572596,16.674383 C13.169566,19.3621787 13.169566,23.7355915 15.8572596,26.4233872 C17.1593872,27.7254128 18.8904511,28.4425532 20.7318128,28.4425532 C22.5731745,28.4425532 24.3042383,27.7255149 25.606366,26.4233872 C28.2941617,23.7355915 28.2941617,19.3620766 25.606366,16.674383 Z M24.5230979,25.3401191 C23.5104,26.352817 22.1639489,26.9105362 20.7318128,26.9105362 C19.2996766,26.9105362 17.9532255,26.352817 16.9405277,25.3401191 C14.8499745,23.249566 14.8499745,19.8481021 16.9405277,17.7575489 C17.9532255,16.7448511 19.2996766,16.1871319 20.7318128,16.1871319 C22.1639489,16.1871319 23.5104,16.7448511 24.5230979,17.7575489 C26.6136511,19.8481021 26.6136511,23.249566 24.5230979,25.3401191 Z" id="Shape"></path>
                    </g>
                </g>
            </g>
        </g>
    </g>
</svg>
