<?xml version="1.0" encoding="UTF-8"?>
<svg width="44px" height="48px" viewBox="0 0 44 48" version="1.1" xmlns="http://www.w3.org/2000/svg" xmlns:xlink="http://www.w3.org/1999/xlink">
    <!-- Generator: Sketch 51.2 (57519) - http://www.bohemiancoding.com/sketch -->
    <title>feature-icon</title>
    <desc>Created with Sketch.</desc>
    <defs></defs>
    <g id="-" stroke="none" stroke-width="1" fill="none" fill-rule="evenodd">
        <g transform="translate(-842.000000, -12368.000000)" fill="#293033" fill-rule="nonzero" id="FEATURES">
            <g transform="translate(0.000000, 12088.000000)">
                <g id="03" transform="translate(736.000000, 248.000000)">
                    <g id="feature-icon" transform="translate(106.000000, 32.000000)">
                        <path d="M42.9191489,0 L0.791489362,0 C0.368476596,0 0.0255319149,0.342944681 0.0255319149,0.765957447 L0.0255319149,13.0212766 C0.0255319149,13.4442894 0.368476596,13.787234 0.791489362,13.787234 L42.9191489,13.787234 C43.3421617,13.787234 43.6851064,13.4442894 43.6851064,13.0212766 L43.6851064,0.765957447 C43.6851064,0.342944681 43.3421617,0 42.9191489,0 Z M1.55744681,1.53191489 L29.8978723,1.53191489 L29.8978723,12.2553191 L1.55744681,12.2553191 L1.55744681,1.53191489 Z M42.1531915,12.2553191 L31.4297872,12.2553191 L31.4297872,1.53191489 L42.1531915,1.53191489 L42.1531915,12.2553191 Z" id="Shape"></path>
                        <path d="M13.0468085,37.787234 L26.4510638,37.787234 C26.8740766,37.787234 27.2170213,37.4442894 27.2170213,37.0212766 C27.2170213,36.5982638 26.8740766,36.2553191 26.4510638,36.2553191 L13.0468085,36.2553191 C12.6237957,36.2553191 12.2808511,36.5982638 12.2808511,37.0212766 C12.2808511,37.4442894 12.6237957,37.787234 13.0468085,37.787234 Z" id="Shape"></path>
                        <path d="M39.8553191,32.1702128 L13.0468085,32.1702128 C12.6237957,32.1702128 12.2808511,32.5131574 12.2808511,32.9361702 C12.2808511,33.359183 12.6237957,33.7021277 13.0468085,33.7021277 L39.8553191,33.7021277 C40.2783319,33.7021277 40.6212766,33.359183 40.6212766,32.9361702 C40.6212766,32.5131574 40.2783319,32.1702128 39.8553191,32.1702128 Z" id="Shape"></path>
                        <path d="M13.0468085,25.5319149 L26.4510638,25.5319149 C26.8740766,25.5319149 27.2170213,25.1889702 27.2170213,24.7659574 C27.2170213,24.3429447 26.8740766,24 26.4510638,24 L13.0468085,24 C12.6237957,24 12.2808511,24.3429447 12.2808511,24.7659574 C12.2808511,25.1889702 12.6237957,25.5319149 13.0468085,25.5319149 Z" id="Shape"></path>
                        <path d="M13.0468085,21.4468085 L39.8553191,21.4468085 C40.2783319,21.4468085 40.6212766,21.1038638 40.6212766,20.6808511 C40.6212766,20.2578383 40.2783319,19.9148936 39.8553191,19.9148936 L13.0468085,19.9148936 C12.6237957,19.9148936 12.2808511,20.2578383 12.2808511,20.6808511 C12.2808511,21.1038638 12.6237957,21.4468085 13.0468085,21.4468085 Z" id="Shape"></path>
                        <path d="M42.9191489,15.8297872 L0.791489362,15.8297872 C0.368476596,15.8297872 0.0255319149,16.1727319 0.0255319149,16.5957447 L0.0255319149,28.8510638 C0.0255319149,29.2740766 0.368476596,29.6170213 0.791489362,29.6170213 L42.9191489,29.6170213 C43.3421617,29.6170213 43.6851064,29.2740766 43.6851064,28.8510638 L43.6851064,16.5957447 C43.6851064,16.1727319 43.3421617,15.8297872 42.9191489,15.8297872 Z M42.1531915,28.0851064 L1.55744681,28.0851064 L1.55744681,17.3617021 L42.1531915,17.3617021 L42.1531915,28.0851064 Z" id="Shape"></path>
                        <path d="M33.8780936,8.40510638 C34.4691064,8.99611915 35.2547745,9.3216 36.0905872,9.3216 C36.6646468,9.3216 37.2150128,9.168 37.6950128,8.88030638 L39.3137362,10.4990298 C39.4632511,10.6485447 39.6593362,10.7234043 39.8553191,10.7234043 C40.0513021,10.7234043 40.2473872,10.6486468 40.3969021,10.4990298 C40.696034,10.1998979 40.696034,9.71489362 40.3969021,9.41586383 L38.7781787,7.79714043 C39.0658723,7.31724255 39.2194723,6.76677447 39.2194723,6.19271489 C39.2194723,5.35690213 38.8939915,4.57123404 38.3029787,3.98022128 C37.7120681,3.38931064 36.9262979,3.06382979 36.0905872,3.06382979 C35.2547745,3.06382979 34.4691064,3.38931064 33.8780936,3.98022128 C32.6581787,5.20013617 32.6581787,7.18519149 33.8780936,8.40510638 Z M34.9613617,5.06348936 C35.2630468,4.76190638 35.664,4.59574468 36.0905872,4.59574468 C36.5171745,4.59574468 36.9182298,4.76180426 37.2198128,5.06348936 C37.5214979,5.36517447 37.6875574,5.76612766 37.6875574,6.19271489 C37.6875574,6.61930213 37.5214979,7.02025532 37.2198128,7.32194043 C36.9181277,7.62362553 36.5171745,7.78968511 36.0905872,7.78968511 C35.664,7.78968511 35.2629447,7.62362553 34.9613617,7.32194043 C34.3386894,6.69926809 34.3386894,5.6861617 34.9613617,5.06348936 Z" id="Shape"></path>
                        <path d="M9.98297872,31.1489362 L3.85531915,31.1489362 C3.43230638,31.1489362 3.0893617,31.4918809 3.0893617,31.9148936 L3.0893617,38.0425532 C3.0893617,38.465566 3.43230638,38.8085106 3.85531915,38.8085106 L9.98297872,38.8085106 C10.4059915,38.8085106 10.7489362,38.465566 10.7489362,38.0425532 L10.7489362,31.9148936 C10.7489362,31.4918809 10.4059915,31.1489362 9.98297872,31.1489362 Z M9.21702128,37.2765957 L4.6212766,37.2765957 L4.6212766,32.6808511 L9.21702128,32.6808511 L9.21702128,37.2765957 Z" id="Shape"></path>
                        <path d="M26.4510638,45.4468085 L13.0468085,45.4468085 C12.6237957,45.4468085 12.2808511,45.7897532 12.2808511,46.212766 C12.2808511,46.6357787 12.6237957,46.9787234 13.0468085,46.9787234 L26.4510638,46.9787234 C26.8740766,46.9787234 27.2170213,46.6357787 27.2170213,46.212766 C27.2170213,45.7897532 26.8740766,45.4468085 26.4510638,45.4468085 Z" id="Shape"></path>
                        <path d="M39.8553191,41.3617021 L13.0468085,41.3617021 C12.6237957,41.3617021 12.2808511,41.7046468 12.2808511,42.1276596 C12.2808511,42.5506723 12.6237957,42.893617 13.0468085,42.893617 L39.8553191,42.893617 C40.2783319,42.893617 40.6212766,42.5506723 40.6212766,42.1276596 C40.6212766,41.7046468 40.2783319,41.3617021 39.8553191,41.3617021 Z" id="Shape"></path>
                        <path d="M9.98297872,40.3404255 L3.85531915,40.3404255 C3.43230638,40.3404255 3.0893617,40.6833702 3.0893617,41.106383 L3.0893617,47.2340426 C3.0893617,47.6570553 3.43230638,48 3.85531915,48 L9.98297872,48 C10.4059915,48 10.7489362,47.6570553 10.7489362,47.2340426 L10.7489362,41.106383 C10.7489362,40.6833702 10.4059915,40.3404255 9.98297872,40.3404255 Z M9.21702128,46.4680851 L4.6212766,46.4680851 L4.6212766,41.8723404 L9.21702128,41.8723404 L9.21702128,46.4680851 Z" id="Shape"></path>
                        <path d="M3.85531915,26.5531915 L9.98297872,26.5531915 C10.4059915,26.5531915 10.7489362,26.2102468 10.7489362,25.787234 L10.7489362,19.6595745 C10.7489362,19.2365617 10.4059915,18.893617 9.98297872,18.893617 L3.85531915,18.893617 C3.43230638,18.893617 3.0893617,19.2365617 3.0893617,19.6595745 L3.0893617,25.787234 C3.0893617,26.2102468 3.43230638,26.5531915 3.85531915,26.5531915 Z M4.6212766,20.4255319 L9.21702128,20.4255319 L9.21702128,25.0212766 L4.6212766,25.0212766 L4.6212766,20.4255319 Z" id="Shape"></path>
                    </g>
                </g>
            </g>
        </g>
    </g>
</svg>