<?xml version="1.0" encoding="UTF-8"?>
<svg width="48px" height="48px" viewBox="0 0 48 48" version="1.1" xmlns="http://www.w3.org/2000/svg" xmlns:xlink="http://www.w3.org/1999/xlink">
    <!-- Generator: Sketch 51.2 (57519) - http://www.bohemiancoding.com/sketch -->
    <title>feature-icon</title>
    <desc>Created with Sketch.</desc>
    <defs></defs>
    <g id="-" stroke="none" stroke-width="1" fill="none" fill-rule="evenodd">
        <g transform="translate(-1128.000000, -12368.000000)" fill="#293033" fill-rule="nonzero" id="FEATURES">
            <g transform="translate(0.000000, 12088.000000)">
                <g id="04" transform="translate(1024.000000, 248.000000)">
                    <g id="feature-icon" transform="translate(104.000000, 32.000000)">
                        <path d="M24,15.0517627 C28.1497627,15.0517627 31.5258305,11.6756949 31.5258305,7.52583051 C31.5258305,3.3760678 28.1497627,0 24,0 C19.8502373,0 16.4741695,3.3760678 16.4741695,7.52583051 C16.4741695,11.6756949 19.8502373,15.0517627 24,15.0517627 Z M24,1.52542373 C27.3086441,1.52542373 30.0004068,4.21718644 30.0004068,7.52583051 C30.0004068,10.8344746 27.3086441,13.526339 24,13.526339 C20.6913559,13.526339 17.9995932,10.8344746 17.9995932,7.52583051 C17.9995932,4.21718644 20.6913559,1.52542373 24,1.52542373 Z" id="Shape"></path>
                        <path d="M24,18.1026102 C30.0825763,18.1026102 35.0768136,22.8507458 35.4704746,28.8353898 L17.8433898,28.8353898 C17.4221695,28.8353898 17.080678,29.1767797 17.080678,29.5981017 C17.080678,30.0194237 17.4221695,30.3608136 17.8433898,30.3608136 L36.2583051,30.3608136 C36.6795254,30.3608136 37.0210169,30.0194237 37.0210169,29.5981017 C37.0210169,22.418339 31.1798644,16.5771864 24,16.5771864 C16.8201356,16.5771864 10.9789831,22.418339 10.9789831,29.5981017 C10.9789831,30.0194237 11.3204746,30.3608136 11.7416949,30.3608136 L14.7925424,30.3608136 C15.2137627,30.3608136 15.5552542,30.0194237 15.5552542,29.5981017 C15.5552542,29.1767797 15.2137627,28.8353898 14.7925424,28.8353898 L12.5294237,28.8353898 C12.9231864,22.8507458 17.9175254,18.1026102 24,18.1026102 Z" id="Shape"></path>
                        <path d="M14.3804746,38.4113898 L10.1964407,37.7091864 L8.23566102,33.9469831 C8.10427119,33.6948814 7.84362712,33.5367458 7.55928814,33.5367458 C7.27494915,33.5367458 7.01430508,33.6948814 6.88291525,33.9469831 L4.92213559,37.7091864 L0.738101695,38.4113898 C0.457728814,38.4584746 0.226779661,38.6574915 0.138915254,38.9278983 C0.0510508475,39.1982034 0.120915254,39.4950508 0.320033898,39.6978305 L3.29227119,42.7252881 L2.66715254,46.9215254 C2.62525424,47.2028136 2.74322034,47.4838983 2.97325424,47.6509831 C3.20308475,47.8181695 3.50705085,47.8433898 3.76149153,47.716678 L7.55918644,45.8254576 L11.3568814,47.716678 C11.4644746,47.7701695 11.5809153,47.7966102 11.6967458,47.7966102 C11.8550847,47.7966102 12.0124068,47.7473898 12.1451186,47.6508814 C12.3751525,47.4837966 12.4931186,47.2027119 12.4512203,46.9214237 L11.8261017,42.7251864 L14.798339,39.6977288 C14.9974576,39.4949492 15.067322,39.1981017 14.9794576,38.9277966 C14.8917966,38.6574915 14.6608475,38.4584746 14.3804746,38.4113898 Z M10.4716271,41.9276949 C10.3041356,42.098339 10.2262373,42.3377288 10.2615254,42.5743729 L10.7269831,45.6987458 L7.89935593,44.2905763 C7.68528814,44.1838983 7.43349153,44.1838983 7.21932203,44.2905763 L4.39159322,45.6987458 L4.85705085,42.5743729 C4.89233898,42.3377288 4.81454237,42.0982373 4.64694915,41.9276949 L2.43386441,39.6735254 L5.54918644,39.1506102 C5.78511864,39.1109492 5.98881356,38.9629831 6.09935593,38.7508475 L7.55928814,35.9495593 L9.01922034,38.7508475 C9.12976271,38.9629831 9.33345763,39.1109492 9.56938983,39.1506102 L12.6847119,39.6735254 L10.4716271,41.9276949 Z" id="Shape"></path>
                        <path d="M30.8211864,38.4113898 L26.6371525,37.7091864 L24.6763729,33.9469831 C24.5449831,33.6948814 24.284339,33.5367458 24,33.5367458 C23.715661,33.5367458 23.4550169,33.6948814 23.3236271,33.9469831 L21.3628475,37.7091864 L17.1788136,38.4113898 C16.8984407,38.4584746 16.6674915,38.6574915 16.5796271,38.9278983 C16.4917627,39.1982034 16.5616271,39.4950508 16.7607458,39.6978305 L19.7329831,42.7252881 L19.1079661,46.9215254 C19.0660678,47.2028136 19.1840339,47.4838983 19.4140678,47.6509831 C19.6438983,47.8181695 19.9478644,47.8433898 20.2023051,47.716678 L24,45.8254576 L27.7976949,47.716678 C27.9052881,47.7701695 28.0217288,47.7966102 28.1375593,47.7966102 C28.2958983,47.7966102 28.4532203,47.7473898 28.5859322,47.6508814 C28.8159661,47.4837966 28.9339322,47.2027119 28.8920339,46.9214237 L28.2670169,42.7251864 L31.2392542,39.6977288 C31.4383729,39.4949492 31.5082373,39.1981017 31.4203729,38.9277966 C31.3325085,38.6574915 31.1015593,38.4584746 30.8211864,38.4113898 Z M26.912339,41.9276949 C26.7448475,42.098339 26.6669492,42.3377288 26.7022373,42.5743729 L27.1675932,45.6987458 L24.3399661,44.2905763 C24.2328814,44.2372881 24.1164407,44.2106441 24,44.2106441 C23.8835593,44.2106441 23.7670169,44.2372881 23.6600339,44.2905763 L20.8324068,45.6987458 L21.2977627,42.5743729 C21.3330508,42.3377288 21.2552542,42.0982373 21.087661,41.9276949 L18.8745763,39.6735254 L21.9898983,39.1506102 C22.2258305,39.1109492 22.4295254,38.9629831 22.5400678,38.7508475 L24,35.949661 L25.4599322,38.7509492 C25.5704746,38.9630847 25.7741695,39.1110508 26.0101017,39.1507119 L29.1254237,39.6736271 L26.912339,41.9276949 Z" id="Shape"></path>
                        <path d="M47.8609831,38.9278983 C47.7731186,38.6574915 47.5422712,38.4584746 47.2617966,38.4113898 L43.0777627,37.7091864 L41.1169831,33.9469831 C40.9855932,33.6948814 40.7249492,33.5367458 40.4406102,33.5367458 C40.1562712,33.5367458 39.8956271,33.6948814 39.7642373,33.9469831 L37.8034576,37.7091864 L33.6194237,38.4113898 C33.3390508,38.4584746 33.1081017,38.6574915 33.0202373,38.9278983 C32.9323729,39.1982034 33.0022373,39.4950508 33.2013559,39.6978305 L36.1735932,42.7252881 L35.5484746,46.9215254 C35.5065763,47.2028136 35.6245424,47.4838983 35.8545763,47.6509831 C36.0844068,47.8181695 36.3883729,47.8433898 36.6428136,47.716678 L40.4405085,45.8254576 L44.2382034,47.716678 C44.3457966,47.7701695 44.4622373,47.7966102 44.5780678,47.7966102 C44.7364068,47.7966102 44.8937288,47.7473898 45.0264407,47.6508814 C45.2564746,47.4837966 45.3744407,47.2027119 45.3325424,46.9214237 L44.7074237,42.7251864 L47.679661,39.6977288 C47.8789831,39.4950508 47.9488475,39.1982034 47.8609831,38.9278983 Z M43.3530508,41.9276949 C43.1855593,42.098339 43.107661,42.3377288 43.1429492,42.5743729 L43.6084068,45.6987458 L40.780678,44.2905763 C40.6735932,44.2372881 40.5571525,44.2106441 40.4407119,44.2106441 C40.3241695,44.2106441 40.2077288,44.2372881 40.1007458,44.2905763 L37.2731186,45.6987458 L37.7385763,42.5743729 C37.7738644,42.3377288 37.6960678,42.0982373 37.5284746,41.9276949 L35.3153898,39.6735254 L38.4307119,39.1506102 C38.6666441,39.1109492 38.870339,38.9629831 38.9808814,38.7508475 L40.4408136,35.9495593 L41.9007458,38.7508475 C42.0112881,38.9629831 42.2149831,39.1109492 42.4509153,39.1506102 L45.5662373,39.6735254 L43.3530508,41.9276949 Z" id="Shape"></path>
                        <path d="M24,10.9839661 C24.9997627,10.9839661 25.9509153,10.5495254 26.6094915,9.792 C26.8857966,9.47410169 26.8522373,8.99237288 26.534339,8.7159661 C26.216339,8.43955932 25.7346102,8.47322034 25.4583051,8.79111864 C25.089661,9.21528814 24.558,9.45854237 24,9.45854237 C23.442,9.45854237 22.9104407,9.21528814 22.5416949,8.79111864 C22.2652881,8.47322034 21.7835593,8.43966102 21.465661,8.7159661 C21.1477627,8.99237288 21.1141017,9.47410169 21.3905085,9.792 C22.0490847,10.5494237 23.0002373,10.9839661 24,10.9839661 Z" id="Shape"></path>
                    </g>
                </g>
            </g>
        </g>
    </g>
</svg>