<?xml version="1.0" encoding="UTF-8"?>
<svg width="48px" height="48px" viewBox="0 0 48 48" version="1.1" xmlns="http://www.w3.org/2000/svg" xmlns:xlink="http://www.w3.org/1999/xlink">
    <!-- Generator: Sketch 51.2 (57519) - http://www.bohemiancoding.com/sketch -->
    <title>feature-icon</title>
    <desc>Created with Sketch.</desc>
    <defs></defs>
    <g id="-" stroke="none" stroke-width="1" fill="none" fill-rule="evenodd">
        <g transform="translate(-264.000000, -12576.000000)" fill="#293033" fill-rule="nonzero" id="FEATURES">
            <g transform="translate(0.000000, 12088.000000)">
                <g id="05" transform="translate(160.000000, 456.000000)">
                    <g id="feature-icon" transform="translate(104.000000, 32.000000)">
                        <path d="M48,31.7325957 L48,16.2562723 C48,15.9172085 47.7769532,15.618383 47.451983,15.5219745 L40.2915064,13.3975149 C40.8457532,12.0417702 41.1912511,10.6961362 41.1912511,9.44680851 C41.1912511,4.23788936 36.9534638,0 31.7444426,0 C26.5354213,0 22.297634,4.23778723 22.297634,9.44680851 C22.297634,10.6961362 22.6431319,12.0417702 23.1973787,13.3975149 L16.2548426,15.4573277 L0.983795745,10.9261277 C0.752170213,10.8576 0.501548936,10.9021277 0.307812766,11.0466383 C0.114076596,11.1911489 2.84217094e-14,11.4187915 2.84217094e-14,11.6605277 L2.84217094e-14,27.1561532 C2.84217094e-14,27.1579915 2.84217094e-14,27.1599319 2.84217094e-14,27.1617702 L2.84217094e-14,42.6382979 C2.84217094e-14,42.9773617 0.222944681,43.2761872 0.548119149,43.3725957 L16.0254638,47.9649702 C16.0299574,47.9662979 16.0370043,47.9683404 16.0370043,47.9683404 C16.0394553,47.9690553 16.0420085,47.9692596 16.0444596,47.9699745 C16.0729532,47.9781447 16.1021617,47.9843745 16.131983,47.9891745 C16.1399489,47.9905021 16.1479149,47.9918298 16.155983,47.9928511 C16.1880511,47.9970383 16.2205277,47.9997957 16.253617,47.9998979 C16.2891574,47.9998979 16.3217362,47.9970383 16.3539064,47.9928511 C16.3618723,47.9918298 16.3697362,47.9905021 16.3777021,47.9891745 C16.4075234,47.9843745 16.436834,47.9780426 16.4654298,47.9699745 C16.4678809,47.9692596 16.470434,47.9690553 16.4728851,47.9683404 L16.4799319,47.9661957 C16.4844255,47.9648681 31.4341787,43.5292596 31.4341787,43.5292596 C31.5291574,43.5714383 31.6339404,43.5953362 31.7445447,43.5953362 C31.8551489,43.5953362 31.960034,43.5714383 32.0549106,43.5292596 L47.0162043,47.9682383 C47.0877957,47.9894809 47.1611234,47.9998979 47.2341447,47.9998979 C47.3973447,47.9998979 47.5584,47.9477106 47.6922894,47.8477277 C47.8859234,47.7031149 48.0001021,47.4755745 48.0001021,47.2339404 L48.0001021,31.7387234 C48,31.7366809 48,31.7346383 48,31.7325957 Z M46.4680851,16.827983 L46.4680851,30.7189787 L32.5104,26.5777021 L32.5104,24.3991149 C33.5092085,23.3705872 37.4317277,19.1911149 39.6466723,14.8041191 L46.4680851,16.827983 Z M31.7444426,1.53191489 C36.1086638,1.53191489 39.6593362,5.08248511 39.6593362,9.44680851 C39.6593362,10.6908255 39.243166,12.0763915 38.595983,13.4793191 C38.5639149,13.5305872 38.537566,13.5862468 38.5178553,13.6460936 C36.6722043,17.5421617 33.1021277,21.5354553 31.7442383,22.9801532 C30.387166,21.5369872 26.8203574,17.5492085 24.9739915,13.6544681 C24.9532596,13.5889021 24.9243574,13.5281362 24.8889191,13.4726809 C24.2440851,12.0723064 23.8295489,10.6892936 23.8295489,9.44670638 C23.8295489,5.08248511 27.3802213,1.53191489 31.7444426,1.53191489 Z M30.9784851,24.3990128 L30.9784851,26.5776 L17.0208,30.7188766 L17.0208,16.827983 L23.8422128,14.8041191 C26.0572596,19.1911149 29.9796766,23.3705872 30.9784851,24.3990128 Z M1.53191489,28.1755915 L6.82396596,29.7458043 C6.89668085,29.7673532 6.97000851,29.7776681 7.04211064,29.7776681 C7.37249362,29.7776681 7.67734468,29.5622809 7.77610213,29.2293447 C7.89651064,28.8237957 7.66529362,28.3975149 7.25964255,28.2772085 L1.53191489,26.5777021 L1.53191489,12.6867064 L15.4888851,16.827983 L15.4888851,30.7189787 L10.1969362,29.148766 C9.79148936,29.0282553 9.36510638,29.2595745 9.2448,29.6652255 C9.12439149,30.0707745 9.35560851,30.4970553 9.76125957,30.6173617 L15.4889872,32.3168681 L15.4889872,46.2078638 L1.53191489,42.0665872 L1.53191489,28.1755915 Z M32.5104,42.0665872 L32.5104,36.5213617 C32.5104,36.0983489 32.1675574,35.7554043 31.7444426,35.7554043 C31.3213277,35.7554043 30.9784851,36.0983489 30.9784851,36.5213617 L30.9784851,42.0665872 L17.0208,46.2078638 L17.0208,32.3168681 L30.9784851,28.1755915 L30.9784851,33.4575319 C30.9784851,33.8805447 31.3213277,34.2234894 31.7444426,34.2234894 C32.1675574,34.2234894 32.5104,33.8805447 32.5104,33.4575319 L32.5104,28.1755915 L46.4680851,32.3168681 L46.4680851,46.2078638 L32.5104,42.0665872 Z" id="Shape"></path>
                        <path d="M31.7444426,14.8085106 C34.700834,14.8085106 37.1061447,12.4033021 37.1061447,9.44680851 C37.1061447,6.49041702 34.700834,4.08510638 31.7444426,4.08510638 C28.7880511,4.08510638 26.3827404,6.49031489 26.3827404,9.44680851 C26.3827404,12.4032 28.7880511,14.8085106 31.7444426,14.8085106 Z M31.7444426,5.61702128 C33.8562383,5.61702128 35.5742298,7.33501277 35.5742298,9.44680851 C35.5742298,11.5586043 33.8562383,13.2765957 31.7444426,13.2765957 C29.6326468,13.2765957 27.9146553,11.5586043 27.9146553,9.44680851 C27.9146553,7.33501277 29.6326468,5.61702128 31.7444426,5.61702128 Z" id="Shape"></path>
                    </g>
                </g>
            </g>
        </g>
    </g>
</svg>