<?xml version="1.0" encoding="UTF-8"?>
<svg width="41px" height="48px" viewBox="0 0 41 48" version="1.1" xmlns="http://www.w3.org/2000/svg" xmlns:xlink="http://www.w3.org/1999/xlink">
    <!-- Generator: Sketch 51.2 (57519) - http://www.bohemiancoding.com/sketch -->
    <title>feature-icon</title>
    <desc>Created with Sketch.</desc>
    <defs></defs>
    <g id="-" stroke="none" stroke-width="1" fill="none" fill-rule="evenodd">
        <g transform="translate(-556.000000, -12576.000000)" fill="#293033" fill-rule="nonzero" id="FEATURES">
            <g transform="translate(0.000000, 12088.000000)">
                <g id="06" transform="translate(448.000000, 456.000000)">
                    <g id="feature-icon" transform="translate(108.000000, 32.000000)">
                        <path d="M40.078125,30.703125 C40.4666748,30.703125 40.78125,30.3885498 40.78125,30 L40.78125,26.671875 C40.78125,25.880127 40.4249268,25.1436768 39.8049317,24.6522217 C39.8034668,24.651123 39.802002,24.6500244 39.8001709,24.6489258 C39.7921143,24.6427002 39.7836914,24.6368408 39.7756348,24.6309815 C39.3270263,24.2849121 38.770752,24.09375 38.203125,24.09375 L35.859375,24.09375 L35.859375,0.703125 C35.859375,0.314575219 35.5447998,2.84217094e-14 35.15625,2.84217094e-14 L5.625,2.84217094e-14 C5.23645022,2.84217094e-14 4.921875,0.314575219 4.921875,0.703125 L4.921875,2.96887209 C4.921875,3.35705569 5.23645022,3.67199709 5.625,3.67199709 C6.01354978,3.67199709 6.328125,3.35705569 6.328125,2.96887209 L6.328125,1.40625 L34.453125,1.40625 L34.453125,27.2014161 L20.390625,35.2371826 L16.8314209,33.2036133 C16.4945068,33.0106201 16.0649414,33.1278076 15.8723145,33.4650879 C15.6796875,33.8023682 15.796875,34.2319336 16.1341552,34.4241943 L37.4304199,46.59375 L2.578125,46.59375 C2.31115725,46.59375 2.0599365,46.5062256 1.85046384,46.3395996 C1.56811519,46.1162109 1.40625,45.7814942 1.40625,45.421875 L1.40625,26.671875 C1.40625,26.4660645 1.46081541,26.269043 1.55932613,26.0958252 L13.5292969,32.9359131 C13.6395263,32.9989013 13.7592773,33.0285645 13.8775635,33.0285645 C14.1218261,33.0285645 14.3591308,32.9014893 14.4887695,32.6744385 C14.6813964,32.3371583 14.5642089,31.9075928 14.2272949,31.7149658 L6.328125,27.2014161 L6.328125,6 C6.328125,5.61145022 6.01354978,5.296875 5.625,5.296875 C5.23645022,5.296875 4.921875,5.61145022 4.921875,6 L4.921875,24.09375 L2.578125,24.09375 C2.01013181,24.09375 1.45275881,24.2852783 1.00488281,24.6313477 C0.996826125,24.637207 0.988769531,24.6427002 0.981079125,24.6489258 C0.979614281,24.6500244 0.978515625,24.6507568 0.977050781,24.6514893 C0.356323219,25.1436768 0,25.880127 0,26.671875 L0,45.421875 C0,46.213623 0.356323219,46.9500732 0.976318312,47.4415283 C1.4296875,47.8015136 1.99841306,48 2.578125,48 L38.203125,48 C38.7729492,48 39.3321533,47.807373 39.7807617,47.4591065 C39.7862549,47.4550781 39.7921143,47.4510498 39.7976074,47.4466553 C39.7998047,47.4451904 39.802002,47.4437256 39.8041992,47.4418945 C40.4249268,46.9500732 40.78125,46.213623 40.78125,45.421875 L40.78125,32.9765625 C40.78125,32.5880127 40.4666748,32.2734375 40.078125,32.2734375 C39.6895752,32.2734375 39.375,32.5880127 39.375,32.9765625 L39.375,45.421875 C39.375,45.6276855 39.3204346,45.824707 39.2219239,45.9979248 L21.8078614,36.046875 L39.2219239,26.0958252 C39.3204346,26.269043 39.375,26.4660645 39.375,26.671875 L39.375,30 C39.375,30.3885498 39.6895752,30.703125 40.078125,30.703125 Z M4.921875,26.397583 L3.35083012,25.5 L4.921875,25.5 L4.921875,26.397583 Z M35.859375,25.5 L37.4304199,25.5 L35.859375,26.397583 L35.859375,25.5 Z" id="Shape"></path>
                        <path d="M28.640625,18.890625 C29.0291748,18.890625 29.34375,18.5760498 29.34375,18.1875 L29.34375,4.3125 C29.34375,3.92395022 29.0291748,3.609375 28.640625,3.609375 L12.140625,3.609375 C11.7520752,3.609375 11.4375,3.92395022 11.4375,4.3125 L11.4375,18.1875 C11.4375,18.5760498 11.7520752,18.890625 12.140625,18.890625 L28.640625,18.890625 Z M12.84375,17.484375 L12.84375,15.5760498 L17.3371583,11.6330567 L24.9840088,17.484375 L12.84375,17.484375 Z M27.9375,17.484375 L27.2980958,17.484375 L24.7679443,15.5482177 L27.9375,12.7928467 L27.9375,17.484375 Z M27.9375,5.015625 L27.9375,10.9295654 L23.6279297,14.6759033 L17.9696045,10.3461914 C17.5678711,10.0385742 17.0002442,10.0576172 16.619751,10.3916016 L12.84375,13.7050781 L12.84375,5.015625 L27.9375,5.015625 Z" id="Shape"></path>
                        <path d="M24.1688232,10.5637207 C25.5340576,10.5637207 26.6451416,9.45263672 26.6451416,8.08703616 C26.6451416,6.7214355 25.5340576,5.61071775 24.1688232,5.61071775 C22.8032227,5.61071775 21.6921386,6.7214355 21.6921386,8.08703616 C21.6921386,9.45263672 22.8032227,10.5637207 24.1688232,10.5637207 Z M24.1688232,7.01696775 C24.7587891,7.01696775 25.2388916,7.49707031 25.2388916,8.08703616 C25.2388916,8.67736819 24.7587891,9.15747075 24.1688232,9.15747075 C23.5784912,9.15747075 23.0983886,8.67736819 23.0983886,8.08703616 C23.0983886,7.49707031 23.5784912,7.01696775 24.1688232,7.01696775 Z" id="Shape"></path>
                        <path d="M9.5625,21.46875 C9.5625,21.8572998 9.87707522,22.171875 10.265625,22.171875 L30.515625,22.171875 C30.9041748,22.171875 31.21875,21.8572998 31.21875,21.46875 C31.21875,21.0802002 30.9041748,20.765625 30.515625,20.765625 L10.265625,20.765625 C9.87707522,20.765625 9.5625,21.0802002 9.5625,21.46875 Z" id="Shape"></path>
                        <path d="M10.265625,25.546875 L30.515625,25.546875 C30.9041748,25.546875 31.21875,25.2322998 31.21875,24.84375 C31.21875,24.4552002 30.9041748,24.140625 30.515625,24.140625 L10.265625,24.140625 C9.87707522,24.140625 9.5625,24.4552002 9.5625,24.84375 C9.5625,25.2322998 9.87707522,25.546875 10.265625,25.546875 Z" id="Shape"></path>
                        <path d="M10.265625,28.921875 L30.515625,28.921875 C30.9041748,28.921875 31.21875,28.6072998 31.21875,28.21875 C31.21875,27.8302002 30.9041748,27.515625 30.515625,27.515625 L10.265625,27.515625 C9.87707522,27.515625 9.5625,27.8302002 9.5625,28.21875 C9.5625,28.6072998 9.87707522,28.921875 10.265625,28.921875 Z" id="Shape"></path>
                    </g>
                </g>
            </g>
        </g>
    </g>
</svg>