<?xml version="1.0" encoding="UTF-8"?>
<svg width="46px" height="48px" viewBox="0 0 46 48" version="1.1" xmlns="http://www.w3.org/2000/svg" xmlns:xlink="http://www.w3.org/1999/xlink">
    <!-- Generator: Sketch 51.2 (57519) - http://www.bohemiancoding.com/sketch -->
    <title>feature-icon</title>
    <desc>Created with Sketch.</desc>
    <defs></defs>
    <g id="-" stroke="none" stroke-width="1" fill="none" fill-rule="evenodd">
        <g transform="translate(-841.000000, -12576.000000)" fill="#293033" fill-rule="nonzero" id="FEATURES">
            <g transform="translate(0.000000, 12088.000000)">
                <g id="07" transform="translate(736.000000, 456.000000)">
                    <g id="feature-icon" transform="translate(105.000000, 32.000000)">
                        <path d="M44.8754883,40.5216065 C44.6960449,40.1773682 44.2716065,40.0437011 43.927002,40.2231445 C43.5827636,40.4029541 43.4490967,40.8273926 43.6285401,41.1716308 C44.1654053,42.2006836 44.4375,43.3150635 44.4375,44.484375 L44.4375,44.4957276 C44.4375,45.6525879 43.4963379,46.59375 42.3391114,46.59375 L32.1917724,46.59375 C31.7753906,46.59375 31.3721924,46.4692383 31.0316162,46.2429199 C31.3289795,45.7283935 31.5,45.1318359 31.5,44.4957276 L31.5,44.484375 C31.5,43.3392334 31.2740479,42.2464599 30.8649902,41.2467041 C32.0804443,38.8472901 34.5600586,37.3125 37.265625,37.3125 C38.9835205,37.3125 40.6450195,37.928833 41.9439698,39.0479737 C42.2384033,39.3013916 42.682251,39.2684326 42.935669,38.973999 C43.1890869,38.6799317 43.1561279,38.2360839 42.8620605,37.9826661 C42.098877,37.3253174 41.230957,36.8137208 40.3022461,36.4625244 C41.9934083,35.4338379 43.125,33.5731201 43.125,31.453125 C43.125,28.2220459 40.4963379,25.59375 37.265625,25.59375 C34.0349121,25.59375 31.40625,28.2220459 31.40625,31.453125 C31.40625,33.5738526 32.5385742,35.4349365 34.2308349,36.463623 C32.550293,37.1011963 31.0931396,38.2576904 30.091919,39.7811279 C29.1049805,38.2814942 27.6610107,37.1085205 25.9592286,36.4621583 C27.6500244,35.4331055 28.78125,33.5727539 28.78125,31.453125 C28.78125,28.2220459 26.1529541,25.59375 22.921875,25.59375 C19.6911621,25.59375 17.0625,28.2220459 17.0625,31.453125 C17.0625,33.5727539 18.1940918,35.4331055 19.8848877,36.4621583 C18.1827393,37.1085205 16.7387695,38.2818604 15.7514648,39.7814942 C15.4310303,39.2926026 15.0618896,38.8363037 14.644043,38.418457 C13.7702636,37.5446777 12.7404786,36.8847656 11.6184083,36.4603271 C13.307373,35.4312744 14.4375,33.5716553 14.4375,31.453125 C14.4375,28.2220459 11.8092041,25.59375 8.578125,25.59375 C5.34741206,25.59375 2.71875,28.2220459 2.71875,31.453125 C2.71875,33.5720214 3.84960938,35.4320068 5.53930669,36.4610596 C4.44836428,36.8737792 3.44384766,37.5087891 2.58654788,38.345581 C2.30859375,38.6169433 2.30310056,39.0622558 2.57446294,39.3402099 C2.84582522,39.6177979 3.29113772,39.6232911 3.56872556,39.3519287 C4.91601563,38.0368652 6.69506831,37.3125 8.578125,37.3125 C10.4941406,37.3125 12.2951661,38.0584717 13.6497803,39.4127197 C14.1903076,39.9532471 14.6359864,40.5692138 14.9787598,41.2463379 C14.5697021,42.2460937 14.34375,43.3392334 14.34375,44.484375 L14.34375,44.4957276 C14.34375,45.1318359 14.5147705,45.7283935 14.8121338,46.2429199 C14.4715576,46.4692383 14.0683594,46.59375 13.6519776,46.59375 L3.50427244,46.59375 C2.34741206,46.59375 1.40625,45.6525879 1.40625,44.4957276 L1.40625,44.484375 C1.40625,43.4956055 1.60363772,42.5386963 1.99255369,41.6392822 C2.14672856,41.2829589 1.98266606,40.8691406 1.62634275,40.7149658 C1.26965334,40.5607911 0.856201125,40.7248536 0.702026344,41.0811768 C0.236206031,42.1578369 5.68434189e-14,43.3026123 5.68434189e-14,44.484375 L5.68434189e-14,44.4957276 C5.68434189e-14,46.4278565 1.57214353,48 3.50427244,48 L13.6519776,48 C14.4144287,48 15.1494141,47.7506104 15.7503662,47.3009033 C16.3355713,47.739624 17.0617676,48 17.8480224,48 L27.9957276,48 C28.7819824,48 29.5081787,47.7399902 30.0933838,47.3009033 C30.6943359,47.7506104 31.4293213,48 32.1917724,48 L42.3394776,48 C44.2716065,48 45.84375,46.4278565 45.84375,44.4957276 L45.84375,44.484375 C45.84375,43.105957 45.5090333,41.7355957 44.8754883,40.5216065 Z M32.8125,31.453125 C32.8125,28.9976807 34.8101807,27 37.265625,27 C39.7210693,27 41.71875,28.9976807 41.71875,31.453125 C41.71875,33.9085693 39.7210693,35.90625 37.265625,35.90625 C34.8101807,35.90625 32.8125,33.9085693 32.8125,31.453125 Z M4.125,31.453125 C4.125,28.9976807 6.12268069,27 8.578125,27 C11.0335693,27 13.03125,28.9976807 13.03125,31.453125 C13.03125,33.9085693 11.0335693,35.90625 8.578125,35.90625 C6.12268069,35.90625 4.125,33.9085693 4.125,31.453125 Z M18.46875,31.453125 C18.46875,28.9976807 20.4664307,27 22.921875,27 C25.3773193,27 27.375,28.9976807 27.375,31.453125 C27.375,33.9085693 25.3773193,35.90625 22.921875,35.90625 C20.4664307,35.90625 18.46875,33.9085693 18.46875,31.453125 Z M17.8480224,46.59375 C16.6911621,46.59375 15.75,45.6525879 15.75,44.4957276 L15.75,44.484375 C15.75,40.5296631 18.9671631,37.3125 22.921875,37.3125 C26.8765869,37.3125 30.09375,40.5296631 30.09375,44.484375 L30.09375,44.4957276 C30.09375,45.6525879 29.1525879,46.59375 27.9957276,46.59375 L17.8480224,46.59375 Z" id="Shape"></path>
                        <path d="M27.609375,9.86791988 L37.546875,9.86791988 C37.9350586,9.86791988 38.25,9.55297856 38.25,9.16479488 C38.25,8.77624509 37.9350586,8.46166988 37.546875,8.46166988 L27.609375,8.46166988 C27.2211914,8.46166988 26.90625,8.77624509 26.90625,9.16479488 C26.90625,9.55297856 27.2211914,9.86791988 27.609375,9.86791988 Z" id="Shape"></path>
                        <path d="M27.609375,12.6804199 L37.546875,12.6804199 C37.9350586,12.6804199 38.25,12.3654786 38.25,11.9772949 C38.25,11.5887451 37.9350586,11.2741699 37.546875,11.2741699 L27.609375,11.2741699 C27.2211914,11.2741699 26.90625,11.5887451 26.90625,11.9772949 C26.90625,12.3654786 27.2211914,12.6804199 27.609375,12.6804199 Z" id="Shape"></path>
                        <path d="M27.609375,15.4929199 L37.546875,15.4929199 C37.9350586,15.4929199 38.25,15.1779786 38.25,14.7897949 C38.25,14.4012451 37.9350586,14.0866699 37.546875,14.0866699 L27.609375,14.0866699 C27.2211914,14.0866699 26.90625,14.4012451 26.90625,14.7897949 C26.90625,15.1779786 27.2211914,15.4929199 27.609375,15.4929199 Z" id="Shape"></path>
                        <path d="M6.92578125,19.5238037 L10.2930908,19.5238037 C10.5106201,21.354126 11.163208,22.692627 12.2380371,23.5074463 C13.1286621,24.1827393 14.1496582,24.3742676 15.0212402,24.3742676 C15.5635987,24.3742676 16.0488281,24.2999268 16.408081,24.2219239 C16.7849121,24.1402588 17.0529786,23.8018799 17.0460205,23.416626 C17.0394287,23.0313721 16.7589112,22.7021484 16.3791504,22.6340332 C15.9514161,22.5574951 15.6595459,22.3729248 15.4610596,22.0524902 C15.0421143,21.3760987 15.1289062,20.2492676 15.2633057,19.5238037 L19.6051026,19.5238037 C20.3708496,19.5238037 21.0948487,19.3432617 21.7379151,19.0246582 C22.4384766,20.8472901 24.2222901,22.1257324 26.2386474,22.1257324 L30.5800781,22.1257324 C30.7148437,22.8519287 30.8016357,23.9787598 30.3823242,24.6547852 C30.1842041,24.9748536 29.8923339,25.1597901 29.4638672,25.2363281 C29.0852051,25.3044433 28.8054199,25.6329346 28.7977295,26.017456 C28.7900391,26.4078369 29.0515136,26.739624 29.435669,26.8245849 C29.7949219,26.9025879 30.2797852,26.9769287 30.8221435,26.9769287 C31.6940917,26.9769287 32.7154541,26.7850342 33.6064453,26.109375 C34.6809083,25.2941895 35.3331299,23.9560547 35.550293,22.1257324 L38.9176026,22.1257324 C41.5733643,22.1257324 43.734375,19.9665527 43.734375,17.3126221 L43.734375,7.41577144 C43.734375,4.76147456 41.5733643,2.60266116 38.9176026,2.60266116 L26.2386474,2.60266116 C25.4967041,2.60266116 24.7650146,2.77624509 24.1058349,3.10070803 C23.4133301,1.29016116 21.6577148,0 19.6054687,0 L10.921875,0 C10.5336914,0 10.21875,0.314575219 10.21875,0.703125 C10.21875,1.09167478 10.5336914,1.40625 10.921875,1.40625 L19.6054687,1.40625 C21.4859619,1.40625 23.015625,2.93444822 23.015625,4.81311037 L23.015625,14.7106933 C23.015625,16.5893555 21.4859619,18.1175537 19.6054687,18.1175537 L14.7055664,18.1175537 C14.3939209,18.1175537 14.1196289,18.3226318 14.0313721,18.6214599 C13.9537354,18.8840332 13.3015136,21.2318115 14.2635498,22.7896729 C14.2895508,22.8317871 14.3166504,22.873169 14.3448487,22.9134521 C13.9134521,22.8391114 13.4758301,22.6809082 13.0880127,22.3868408 C12.2296143,21.7360839 11.7421875,20.5220947 11.6389161,18.7789307 C11.6165771,18.4075927 11.3089599,18.1175537 10.9368896,18.1175537 L6.92578125,18.1175537 C5.04528806,18.1175537 3.515625,16.5893555 3.515625,14.7106933 L3.515625,4.81311037 C3.515625,2.93444822 5.04528806,1.40625 6.92578125,1.40625 L7.921875,1.40625 C8.31005859,1.40625 8.625,1.09167478 8.625,0.703125 C8.625,0.314575219 8.31005859,0 7.921875,0 L6.92578125,0 C4.27001953,0 2.109375,2.15917969 2.109375,4.81311037 L2.109375,14.7106933 C2.109375,17.364624 4.27001953,19.5238037 6.92578125,19.5238037 Z M24.421875,14.7106933 L24.421875,4.81311037 C24.421875,4.72045894 24.4185791,4.62854006 24.4134521,4.53735356 C24.9572754,4.19091797 25.5812989,4.00891116 26.2386474,4.00891116 L38.9176026,4.00891116 C40.7980958,4.00891116 42.328125,5.53710937 42.328125,7.41577144 L42.328125,17.3129883 C42.328125,19.1912842 40.7980958,20.7198487 38.9176026,20.7198487 L34.9068604,20.7198487 C34.5347901,20.7198487 34.2271729,21.0098877 34.2048339,21.3812256 C34.1015625,23.1243896 33.614502,24.3383789 32.7564698,24.9891357 C32.3682862,25.2835693 31.9302979,25.4417724 31.4985352,25.5161133 C31.5267334,25.4754638 31.553833,25.4344482 31.5798339,25.3919678 C32.5422364,23.8341065 31.8900146,21.4863281 31.8123779,21.2237549 C31.7241211,20.9249268 31.4498291,20.7198487 31.1381836,20.7198487 L26.2386474,20.7198487 C24.6859131,20.7198487 23.3283692,19.6501464 22.9401855,18.1787109 C23.852417,17.3023682 24.421875,16.0722656 24.421875,14.7106933 Z" id="Shape"></path>
                        <path d="M6.75,8.38110356 C6.75,9.85766606 7.51721194,12.7404786 12.6547852,15.4581299 C12.8459473,15.5592041 13.0557862,15.6097412 13.265625,15.6097412 C13.4754638,15.6097412 13.6853027,15.5592041 13.8764648,15.4581299 C19.0140381,12.7404786 19.78125,9.85766606 19.78125,8.38110356 C19.78125,6.12597656 18.1959229,4.359375 16.171875,4.359375 C14.7784424,4.359375 13.800293,5.01635738 13.265625,5.505249 C12.7313232,5.01672366 11.7531739,4.359375 10.359375,4.359375 C8.33532712,4.359375 6.75,6.12597656 6.75,8.38110356 Z M10.359375,5.765625 C11.3510742,5.765625 12.0340576,6.24902344 12.4321289,6.65405269 C12.649292,6.87561037 12.9532471,7.00231931 13.265625,7.00231931 C13.5780029,7.00231931 13.881958,6.87561037 14.0991211,6.65441897 C14.4971924,6.24902344 15.1801758,5.765625 16.171875,5.765625 C17.6030273,5.765625 18.375,7.11328125 18.375,8.38110356 C18.375,10.3461914 16.5135498,12.461792 13.265625,14.1903076 C10.0177002,12.461792 8.15625,10.3461914 8.15625,8.38110356 C8.15625,7.11328125 8.92822266,5.765625 10.359375,5.765625 Z" id="Shape"></path>
                    </g>
                </g>
            </g>
        </g>
    </g>
</svg>