<?xml version="1.0" encoding="UTF-8"?>
<svg width="48px" height="44px" viewBox="0 0 48 44" version="1.1" xmlns="http://www.w3.org/2000/svg" xmlns:xlink="http://www.w3.org/1999/xlink">
    <!-- Generator: Sketch 51.2 (57519) - http://www.bohemiancoding.com/sketch -->
    <title>feature-icon</title>
    <desc>Created with Sketch.</desc>
    <defs></defs>
    <g id="-" stroke="none" stroke-width="1" fill="none" fill-rule="evenodd">
        <g transform="translate(-1128.000000, -12578.000000)" fill-rule="nonzero" id="FEATURES">
            <g transform="translate(0.000000, 12088.000000)">
                <g id="08" transform="translate(1024.000000, 456.000000)">
                    <g id="feature-icon" transform="translate(104.000000, 34.000000)">
                        <path d="M47.2340426,0.0510638298 L0.765957447,0.0510638298 C0.342842553,0.0510638298 0,0.394008511 0,0.817021277 L0,42.6893617 C0,43.1123745 0.342842553,43.4553191 0.765957447,43.4553191 L47.2340426,43.4553191 C47.6571574,43.4553191 48,43.1123745 48,42.6893617 L48,34.5191489 C48,34.0961362 47.6571574,33.7531915 47.2340426,33.7531915 C46.8109277,33.7531915 46.4680851,34.0961362 46.4680851,34.5191489 L46.4680851,41.9234043 L1.53191489,41.9234043 L1.53191489,7.7106383 L46.4680851,7.7106383 L46.4680851,31.4553191 C46.4680851,31.8783319 46.8109277,32.2212766 47.2340426,32.2212766 C47.6571574,32.2212766 48,31.8783319 48,31.4553191 L48,0.817021277 C48,0.394008511 47.6571574,0.0510638298 47.2340426,0.0510638298 Z M1.53191489,1.58297872 L29.8723404,1.58297872 L29.8723404,6.1787234 L1.53191489,6.1787234 L1.53191489,1.58297872 Z M31.4042553,6.1787234 L31.4042553,1.58297872 L46.4680851,1.58297872 L46.4680851,6.1787234 L31.4042553,6.1787234 Z" id="Shape" fill="#252C41"></path>
                        <path d="M38.9617021,3.06382979 C38.511217,3.06382979 38.1446809,3.43036596 38.1446809,3.88085106 C38.1446809,4.33133617 38.511217,4.69787234 38.9617021,4.69787234 C39.4121872,4.69787234 39.7787234,4.33133617 39.7787234,3.88085106 C39.7787234,3.43036596 39.4121872,3.06382979 38.9617021,3.06382979 Z" id="Shape" fill="#293033"></path>
                        <path d="M34.7744681,3.06382979 C34.323983,3.06382979 33.9574468,3.43036596 33.9574468,3.88085106 C33.9574468,4.33133617 34.323983,4.69787234 34.7744681,4.69787234 C35.2249532,4.69787234 35.5914894,4.33133617 35.5914894,3.88085106 C35.5914894,3.43036596 35.2249532,3.06382979 34.7744681,3.06382979 Z" id="Shape" fill="#293033"></path>
                        <path d="M43.1489362,3.06382979 C42.6984511,3.06382979 42.3319149,3.43036596 42.3319149,3.88085106 C42.3319149,4.33133617 42.6984511,4.69787234 43.1489362,4.69787234 C43.5994213,4.69787234 43.9659574,4.33133617 43.9659574,3.88085106 C43.9659574,3.43036596 43.5994213,3.06382979 43.1489362,3.06382979 Z" id="Shape" fill="#293033"></path>
                        <path d="M30.1847489,26.122417 C29.8855149,25.8232851 29.4006128,25.8232851 29.1014809,26.122417 L24.9901277,30.2337702 C24.6900766,30.0899745 24.354383,30.0091915 24,30.0091915 C22.7330043,30.0091915 21.7021277,31.039966 21.7021277,32.3070638 C21.7021277,33.5741617 22.7330043,34.6049362 24,34.6049362 C25.2669957,34.6049362 26.2978723,33.5741617 26.2978723,32.3070638 C26.2978723,31.952783 26.2171915,31.6169872 26.0732936,31.3170383 L30.1846468,27.205583 C30.4837787,26.9065532 30.4837787,26.4215489 30.1847489,26.122417 Z M24,33.0731234 C23.5776,33.0731234 23.2340426,32.729566 23.2340426,32.307166 C23.2340426,31.884766 23.5776,31.5412085 24,31.5412085 C24.4224,31.5412085 24.7659574,31.884766 24.7659574,32.307166 C24.7659574,32.729566 24.4224,33.0731234 24,33.0731234 Z" id="Shape" fill="#293033"></path>
                        <path d="M34.2822128,32.307166 C34.2822128,32.7301787 34.6250553,33.0731234 35.0481702,33.0731234 L40.5141447,33.0731234 C40.9372596,33.0731234 41.2801021,32.7301787 41.2801021,32.307166 C41.2801021,32.2877617 41.2793872,32.2685617 41.2779574,32.249566 C41.2625362,27.5499574 39.3604085,23.2869447 36.291983,20.1777702 C36.2694128,20.147234 36.2452085,20.1175149 36.2174298,20.0897362 C36.1902638,20.0625702 36.1611574,20.0387745 36.1311319,20.0165106 C33.0090894,16.9346043 28.7230979,15.0291064 23.9998979,15.0291064 C19.2773106,15.0291064 14.9919319,16.9342979 11.8699915,20.0155915 C11.8395574,20.0380596 11.8099404,20.0622638 11.782366,20.0897362 C11.7547915,20.1173106 11.7305872,20.1469277 11.7081191,20.1773617 C8.62692766,23.2993021 6.72173617,27.5846809 6.72173617,32.307166 C6.72173617,32.7301787 7.06457872,33.0731234 7.48769362,33.0731234 L12.9517277,33.0731234 C13.3748426,33.0731234 13.7176851,32.7301787 13.7176851,32.307166 C13.7176851,26.6375489 18.3302809,22.0249532 23.9998979,22.0249532 C29.6695149,22.0249532 34.2822128,26.6375489 34.2822128,32.307166 Z M16.2096,23.4334979 L13.4261106,20.6500085 C16.0462979,18.2710468 19.4688,16.760783 23.2340426,16.5796085 L23.2340426,20.5184681 C20.5520681,20.6909617 18.111217,21.7620766 16.2096,23.4334979 Z M24.7659574,16.5796085 C28.5312,16.7608851 31.9537021,18.2710468 34.5738894,20.6500085 L31.7904,23.4334979 C29.8888851,21.7620766 27.4479319,20.6908596 24.7659574,20.518366 L24.7659574,16.5796085 Z M35.7895149,31.5412085 C35.6171234,28.8591319 34.5453957,26.4180766 32.8738723,24.5165617 L35.6571574,21.7332766 C38.0361191,24.353566 39.546383,27.7760681 39.7277617,31.5413106 L35.7895149,31.5413106 L35.7895149,31.5412085 Z M12.2104851,31.5411064 L8.27213617,31.5411064 C8.45351489,27.7758638 9.96377872,24.3533617 12.3427404,21.7330723 L15.1260255,24.5163574 C13.4546043,26.4179745 12.3828766,28.8590298 12.2104851,31.5411064 Z" id="Shape" fill="#293033"></path>
                    </g>
                </g>
            </g>
        </g>
    </g>
</svg>