<?xml version="1.0" encoding="UTF-8"?>
<svg width="31px" height="48px" viewBox="0 0 31 48" version="1.1" xmlns="http://www.w3.org/2000/svg" xmlns:xlink="http://www.w3.org/1999/xlink">
    <!-- Generator: Sketch 51.2 (57519) - http://www.bohemiancoding.com/sketch -->
    <title>feature-icon</title>
    <desc>Created with Sketch.</desc>
    <defs></defs>
    <g id="-" stroke="none" stroke-width="1" fill="none" fill-rule="evenodd">
        <g transform="translate(-273.000000, -12784.000000)" fill="#293033" fill-rule="nonzero" id="FEATURES">
            <g transform="translate(0.000000, 12088.000000)">
                <g id="09" transform="translate(160.000000, 664.000000)">
                    <g id="feature-icon" transform="translate(113.000000, 32.000000)">
                        <path d="M30.0453447,22.169566 C29.6223319,22.169566 29.2793872,22.5125106 29.2793872,22.9355234 L29.2793872,36.6642383 L1.56316596,36.6642383 L1.56316596,22.9355234 C1.56316596,22.5125106 1.22022128,22.169566 0.797208511,22.169566 C0.374195745,22.169566 0.0312510638,22.5125106 0.0312510638,22.9355234 L0.0312510638,45.8266213 C0.0312510638,47.0249872 1.00626383,48 2.20462979,48 L28.6379234,48 C29.8362894,48 30.8113021,47.0249872 30.8113021,45.8266213 L30.8113021,22.9355234 C30.8113021,22.5125106 30.4683574,22.169566 30.0453447,22.169566 Z M28.6379234,46.4680851 L2.20462979,46.4680851 C1.8509617,46.4680851 1.56316596,46.1802894 1.56316596,45.8266213 L1.56316596,38.1961532 L29.2794894,38.1961532 L29.2794894,45.8266213 C29.2793872,46.1802894 28.9915915,46.4680851 28.6379234,46.4680851 Z" id="Shape"></path>
                        <path d="M17.8722383,41.5661617 L12.9703149,41.5661617 C12.5473021,41.5661617 12.2043574,41.9091064 12.2043574,42.3321191 C12.2043574,42.7551319 12.5473021,43.0980766 12.9703149,43.0980766 L17.8722383,43.0980766 C18.2952511,43.0980766 18.6381957,42.7551319 18.6381957,42.3321191 C18.6381957,41.9091064 18.2952511,41.5661617 17.8722383,41.5661617 Z" id="Shape"></path>
                        <path d="M28.6379234,0 L2.20462979,0 C1.00626383,0 0.0312510638,0.975012766 0.0312510638,2.17337872 L0.0312510638,16.674383 C0.0312510638,19.7846809 2.56166809,22.3149957 5.67186383,22.3149957 C7.7490383,22.3149957 9.56762553,21.1862809 10.5465191,19.5100596 C11.5254128,21.1862809 13.3441021,22.3149957 15.4211745,22.3149957 C17.4982468,22.3149957 19.3169362,21.1862809 20.2958298,19.5100596 C21.2747234,21.1862809 23.0934128,22.3149957 25.1704851,22.3149957 C28.280783,22.3149957 30.8110979,19.7845787 30.8110979,16.674383 L30.8110979,2.17337872 C30.8113021,0.975012766 29.8362894,7.25660666e-16 28.6379234,0 Z M20.2959319,7.96575319 C19.8729191,7.96575319 19.5299745,8.30869787 19.5299745,8.73171064 L19.5299745,14.8870468 L11.3124766,14.8870468 L11.3124766,8.73171064 C11.3124766,8.30869787 10.9695319,7.96575319 10.5465191,7.96575319 C10.1235064,7.96575319 9.7805617,8.30869787 9.7805617,8.73171064 L9.7805617,14.8870468 L1.56316596,14.8870468 L1.56316596,6.4338383 L29.2794894,6.4338383 L29.2794894,14.8870468 L21.0619915,14.8870468 L21.0619915,8.73171064 C21.0618894,8.30869787 20.7190468,7.96575319 20.2959319,7.96575319 Z M2.20462979,1.53191489 L28.6379234,1.53191489 C28.9915915,1.53191489 29.2793872,1.81971064 29.2793872,2.17337872 L29.2793872,4.9019234 L1.56316596,4.9019234 L1.56316596,2.17337872 C1.56316596,1.81971064 1.8509617,1.53191489 2.20462979,1.53191489 Z M5.67186383,20.7830809 C3.40626383,20.7830809 1.56316596,18.9398809 1.56316596,16.674383 L1.56316596,16.4190638 L9.78066383,16.4190638 L9.78066383,16.674383 C9.78066383,18.9398809 7.93746383,20.7830809 5.67186383,20.7830809 Z M15.4212766,20.7830809 C13.1556766,20.7830809 11.3125787,18.9398809 11.3125787,16.674383 L11.3125787,16.4190638 L19.5300766,16.4190638 L19.5300766,16.674383 C19.5299745,18.9398809 17.6868766,20.7830809 15.4212766,20.7830809 Z M25.1706894,20.7830809 C22.9050894,20.7830809 21.0619915,18.9398809 21.0619915,16.674383 L21.0619915,16.4190638 L29.2794894,16.4190638 L29.2794894,16.674383 C29.2793872,18.9398809 27.4361872,20.7830809 25.1706894,20.7830809 Z" id="Shape"></path>
                    </g>
                </g>
            </g>
        </g>
    </g>
</svg>