<?xml version="1.0" encoding="UTF-8"?>
<svg width="50px" height="50px" viewBox="0 0 50 50" version="1.1" xmlns="http://www.w3.org/2000/svg" xmlns:xlink="http://www.w3.org/1999/xlink">
    <!-- Generator: Sketch 51.2 (57519) - http://www.bohemiancoding.com/sketch -->
    <title>dollar</title>
    <desc>Created with Sketch.</desc>
    <defs></defs>
    <g id="-" stroke="none" stroke-width="1" fill="none" fill-rule="evenodd">
        <g transform="translate(-311.000000, -4039.000000)" fill="#FFFFFF" fill-rule="nonzero" id="01">
            <g transform="translate(283.000000, 4016.000000)">
                <g id="dollar" transform="translate(28.000000, 23.000000)">
                    <path d="M36.3671,22.6388 C32.753,22.6388 29.3648,24.0694 26.8047,26.6294 C24.2447,29.1894 22.8894,32.5776 22.8894,36.1918 C22.9647,43.7212 28.9882,49.7447 36.4423,49.7447 L36.5176,49.7447 C40.1317,49.7447 43.5199,48.3141 46.08,45.7541 C48.64,43.1941 49.9953,39.8059 49.9953,36.1917 C49.92,28.6624 43.8212,22.6388 36.3671,22.6388 Z M44.9506,44.6247 C42.6918,46.8835 39.68,48.1635 36.4424,48.1635 L36.3671,48.9164 L36.3671,48.1635 C29.7412,48.1635 24.3953,42.8176 24.32,36.1917 C24.32,32.9541 25.5247,29.9423 27.7835,27.6835 C30.0423,25.4247 33.0541,24.1447 36.367,24.1447 C42.9929,24.1447 48.3388,29.4906 48.4141,36.1165 C48.4894,39.3541 47.2094,42.3659 44.9506,44.6247 Z" id="Shape"></path>
                    <path d="M23.1906,23.1659 C25.7506,20.6059 27.1059,17.2177 27.1059,13.6035 C27.0306,6.0741 21.0071,0.0506 13.4776,0.0506 C6.0235,0.1259 0,6.2247 0,13.6788 C0.0753,21.0576 6.1741,27.1565 13.6282,27.1565 C17.2424,27.1565 20.6306,25.7259 23.1906,23.1659 Z M13.5529,26.3282 L13.5529,25.5753 C7.0023,25.6506 1.5811,20.2294 1.5058,13.6788 C1.5058,7.0529 6.8517,1.6317 13.5529,1.5564 C20.1788,1.5564 25.5247,6.9023 25.6,13.5282 C25.6,16.7658 24.3953,19.7776 22.1365,22.0364 C19.8777,24.2952 16.8659,25.5752 13.6283,25.5752 L13.5529,26.3282 Z" id="Shape"></path>
                    <path d="M35.7647,18.3471 C35.84,18.4224 35.9153,18.4977 35.9906,18.4977 C36.0659,18.4977 36.1412,18.573 36.2918,18.573 C36.5177,18.573 36.6683,18.4977 36.8189,18.3471 L41.1107,14.0553 C41.4119,13.7541 41.4119,13.3024 41.1107,13.0012 C40.8095,12.7 40.3578,12.7 40.0566,13.0012 L37.0448,16.013 L36.9695,4.6436 C36.9695,4.1918 36.593,3.8907 36.2166,3.8907 C35.7648,3.8907 35.4637,4.2672 35.4637,4.6436 L35.539,16.013 L32.5272,13.0765 C32.226,12.7753 31.7743,12.7753 31.4731,13.0765 C31.1719,13.3777 31.1719,13.8294 31.4731,14.1306 L35.7647,18.3471 Z" id="Shape"></path>
                    <path d="M14.1553,32.1259 C14.08,32.0506 14.0047,32.0506 13.9294,31.9753 C13.9294,31.9753 13.7788,31.9 13.7035,31.9 C13.4776,31.9 13.2517,31.9753 13.1764,32.1259 L8.8846,36.4177 C8.5834,36.7189 8.5834,37.1706 8.8846,37.4718 C9.1858,37.773 9.6375,37.773 9.9387,37.4718 L12.9505,34.46 L13.0258,45.8294 C13.0258,46.2812 13.4023,46.5823 13.7787,46.5823 C14.2305,46.5823 14.5316,46.2058 14.5316,45.8294 L14.4565,34.46 L17.4683,37.3965 C17.7695,37.6977 18.2212,37.6977 18.5224,37.3965 C18.8236,37.0953 18.8236,36.6436 18.5224,36.3424 C18.3718,36.1918 14.3812,32.2765 14.1553,32.1259 Z" id="Shape"></path>
                    <path d="M17.3929,13.7541 C16.7153,13.227 15.6611,12.7753 14.3058,12.3988 L14.2305,12.3988 L14.2305,8.9353 C15.2093,9.0859 16.0376,9.4624 16.8658,9.9894 L18.0705,8.3329 C16.8658,7.5047 15.5858,7.0529 14.2305,6.9776 L14.2305,6.0741 L13.0258,6.0741 L13.0258,6.9776 C11.8211,7.0529 10.8423,7.4294 10.1646,8.107 C9.4117,8.7846 9.0352,9.6129 9.0352,10.7423 C9.0352,11.7964 9.3364,12.6246 10.014,13.1517 C10.6916,13.6788 11.6705,14.1305 13.0258,14.4317 L13.0258,17.9705 C11.9717,17.8199 10.8423,17.2929 9.8634,16.3893 L8.5081,17.9705 C9.8634,19.0999 11.3693,19.7776 13.0257,20.0034 L13.0257,21.3587 L14.2304,21.3587 L14.2304,20.0034 C15.5104,19.9281 16.4892,19.5516 17.2422,18.874 C17.9952,18.1964 18.3716,17.2928 18.3716,16.2387 C18.3718,15.1847 18.0706,14.3565 17.3929,13.7541 Z M11.6706,11.4953 C11.4447,11.2694 11.2941,10.9682 11.2941,10.5165 C11.2941,10.14 11.4447,9.7636 11.7459,9.4624 C12.0471,9.1612 12.4988,9.0106 13.0259,9.0106 L13.0259,12.1468 C12.3911,11.9296 11.9601,11.7125 11.6706,11.4953 Z M15.5859,17.5188 C15.2094,17.82 14.7577,17.9706 14.1553,18.0459 L14.1553,14.733 L14.2306,14.733 C14.9835,14.9589 15.4353,15.1848 15.7365,15.4106 C16.0377,15.6365 16.113,16.013 16.113,16.4647 C16.113,16.9164 15.9624,17.2176 15.5859,17.5188 Z" id="Shape"></path>
                    <path d="M40.2071,36.7188 C39.5295,36.1164 38.4753,35.6647 37.12,35.3635 L37.0447,31.9 C38.0235,32.0506 38.8518,32.4271 39.68,32.9541 L40.8847,31.2976 C39.68,30.4694 38.4,30.0176 37.0447,29.9423 L37.0447,29.0388 L35.84,29.0388 L35.84,29.9423 C34.6353,30.0176 33.6565,30.3941 32.9788,31.0717 C32.2259,31.7493 31.8494,32.5776 31.8494,33.707 C31.8494,34.7611 32.1506,35.5894 32.8282,36.1164 C33.5058,36.6435 34.4847,37.0952 35.84,37.3964 L35.84,40.9352 C34.7859,40.7846 33.6565,40.2576 32.6776,39.354 L31.3223,40.9352 C32.6776,42.0646 34.1835,42.7423 35.8399,42.9681 L35.8399,44.3234 L37.0446,44.3234 L37.0446,42.9681 C38.3246,42.8928 39.3034,42.5163 40.0564,41.8387 C40.8094,41.1611 41.1858,40.2575 41.1858,39.2034 C41.1858,38.1493 40.8847,37.3212 40.2071,36.7188 Z M34.0329,33.4059 C34.0329,33.0294 34.1835,32.653 34.4847,32.3518 C34.7859,32.0506 35.2376,31.9 35.7647,31.9 L35.7647,35.0362 C35.1299,34.819 34.6989,34.6019 34.4094,34.3847 C34.1835,34.1588 34.0329,33.8576 34.0329,33.4059 Z M38.4,40.4082 C38.0235,40.7094 37.5718,40.86 36.9694,40.9353 L36.9694,37.6224 C37.7223,37.8483 38.1741,38.0742 38.4753,38.3 C38.7765,38.5258 38.8518,38.9024 38.8518,39.3541 C38.9271,39.7306 38.7765,40.1071 38.4,40.4082 Z" id="Shape"></path>
                </g>
            </g>
        </g>
    </g>
</svg>