<?xml version="1.0" encoding="UTF-8"?>
<svg width="50px" height="50px" viewBox="0 0 50 50" version="1.1" xmlns="http://www.w3.org/2000/svg" xmlns:xlink="http://www.w3.org/1999/xlink">
    <!-- Generator: Sketch 51.2 (57519) - http://www.bohemiancoding.com/sketch -->
    <title>wallet</title>
    <desc>Created with Sketch.</desc>
    <defs></defs>
    <g id="-" stroke="none" stroke-width="1" fill="none" fill-rule="evenodd">
        <g transform="translate(-1079.000000, -4039.000000)" fill="#FFFFFF" fill-rule="nonzero" id="03">
            <g transform="translate(1024.000000, 4016.000000)">
                <g id="wallet" transform="translate(55.000000, 23.000000)">
                    <path d="M46.9248491,12.3469819 L41.3194165,12.3469819 L41.3194165,0.757444668 C41.3194165,0.302917505 41.0163984,0 40.5619718,0 L7.91428571,0 C7.45975855,0 7.15684105,0.303018109 7.15684105,0.757444668 L7.15684105,3.48440644 L4.5056338,3.48440644 C4.05110664,3.48440644 3.74818913,3.78742455 3.74818913,4.24185111 L3.74818913,12.4227364 L2.83923541,12.4227364 C1.24849095,12.3469819 0.0365191147,13.6347082 0.0365191147,15.1496982 L0.0365191147,19.9975855 C0.0365191147,35.5260563 0.0365191147,31.9658954 0.0365191147,47.4943662 C0.0365191147,48.8578471 1.17273642,49.9940644 2.5362173,49.9940644 L46.8490946,49.9940644 C48.5913481,49.9940644 49.954829,48.554829 49.954829,46.88833 L49.954829,15.5284708 C50.0304829,13.7862173 48.5912475,12.3469819 46.9248491,12.3469819 Z M8.67183099,1.51498994 L39.8045272,1.51498994 L39.8045272,17.7251509 L37.9107646,17.7251509 L37.9107646,4.24195171 C37.9107646,3.78742455 37.6077465,3.48450704 37.1533199,3.48450704 L8.67183099,3.48450704 L8.67183099,1.51498994 Z M5.26307847,4.99939638 L36.3957746,4.99939638 L36.3957746,17.7251509 L5.26307847,17.7251509 L5.26307847,4.99939638 Z M1.55140845,15.1496982 C1.55140845,14.468008 2.08169014,13.8619718 2.83913481,13.8619718 L3.82384306,13.8619718 L3.82384306,17.7251509 L2.30895372,17.7251509 C2.08169014,17.7251509 1.77867203,17.8009054 1.55150905,17.87666 L1.55150905,15.1496982 L1.55140845,15.1496982 Z M45.1825956,48.4790744 L2.5361167,48.4790744 C2.00583501,48.4790744 1.55140845,48.0245473 1.55140845,47.4943662 C1.55140845,32.0416499 1.55140845,35.5260563 1.55140845,19.9975855 C1.55140845,19.6188129 1.85442656,19.2401408 2.30885312,19.2401408 L44.1977867,19.2401408 C44.7280684,19.2401408 45.1067404,19.694668 45.1067404,20.1490946 L45.1067404,28.860161 L33.5930584,28.860161 C33.1385312,28.860161 32.8356137,29.1631791 32.8356137,29.6176056 L32.8356137,39.5406439 C32.8356137,39.995171 33.1386318,40.2980885 33.5930584,40.2980885 L45.1825956,40.2980885 L45.1825956,48.4790744 Z M48.5155936,46.8884306 C48.5155936,47.7216298 47.7581489,48.4791751 46.9248491,48.4791751 L46.6975855,48.4791751 L46.6975855,40.2982897 L48.5155936,40.2982897 L48.5155936,46.8884306 Z M48.5155936,38.7832998 L45.9401408,38.7832998 C45.9401408,38.7832998 45.9105634,38.7832998 45.906841,38.7832998 L34.3506036,38.7832998 L34.3506036,30.3752515 L48.5155936,30.3752515 L48.5155936,38.7832998 Z M48.5155936,28.784507 L46.6975855,28.784507 L46.6975855,20.1491952 C46.6975855,18.7857143 45.5613682,17.7252515 44.2736419,17.7252515 L41.3194165,17.7252515 L41.3194165,13.8620724 L46.9248491,13.8620724 C47.8338028,13.8620724 48.5155936,14.6195171 48.5155936,15.4528169 L48.5155936,28.784507 Z" id="Shape"></path>
                    <path d="M38.6682093,37.1168008 C40.1074447,37.1168008 41.243662,35.9805835 41.243662,34.5413481 C41.243662,33.1021127 40.1074447,31.9658954 38.6682093,31.9658954 C37.2289738,31.9658954 36.0927565,33.1021127 36.0927565,34.5413481 C36.0927565,35.9805835 37.2289738,37.1168008 38.6682093,37.1168008 Z M38.6682093,33.5566398 C39.2742455,33.5566398 39.728672,34.011167 39.728672,34.6171026 C39.728672,35.2230382 39.2741449,35.6775654 38.6682093,35.6775654 C38.062173,35.6775654 37.6077465,35.2230382 37.6077465,34.6171026 C37.6077465,34.011167 38.0622736,33.5566398 38.6682093,33.5566398 Z" id="Shape"></path>
                    <path d="M18.7463783,25.7545272 C14.2015091,25.7545272 10.4897384,29.4661972 10.4897384,34.011167 C10.4897384,38.5560362 14.2014085,42.2678068 18.7463783,42.2678068 C23.2913481,42.2678068 27.0030181,38.5561368 27.0030181,34.011167 C27.0029175,29.4661972 23.2912475,25.7545272 18.7463783,25.7545272 Z M18.7463783,40.7527163 C15.0347082,40.7527163 12.0047284,37.7227364 12.0047284,34.0110664 C12.0047284,30.2993964 15.0347082,27.2694165 18.7463783,27.2694165 C22.4580483,27.2694165 25.4880282,30.2993964 25.4880282,34.0110664 C25.4879276,37.722837 22.4580483,40.7527163 18.7463783,40.7527163 Z" id="Shape"></path>
                    <path d="M21.8520121,33.2536217 L19.5795775,33.2536217 L19.5795775,30.9811871 C19.5795775,30.52666 19.2765594,30.2237425 18.8221328,30.2237425 C18.3676056,30.2237425 18.0646881,30.5267606 18.0646881,30.9811871 L18.0646881,33.2536217 L15.7922535,33.2536217 C15.3377264,33.2536217 15.0348089,33.5566398 15.0348089,34.0110664 C15.0348089,34.465493 15.337827,34.7685111 15.7922535,34.7685111 L18.0646881,34.7685111 L18.0646881,37.0409457 C18.0646881,37.4954728 18.3677062,37.7983903 18.8221328,37.7983903 C19.27666,37.7983903 19.5795775,37.4953722 19.5795775,37.0409457 L19.5795775,34.7686117 L21.8520121,34.7686117 C22.3065392,34.7686117 22.6094567,34.4655936 22.6094567,34.011167 C22.6095573,33.6323944 22.2307847,33.2536217 21.8520121,33.2536217 Z" id="Shape"></path>
                    <path d="M30.1844064,8.33239437 L11.5502012,8.33239437 C11.095674,8.33239437 10.7927565,8.63541247 10.7927565,9.08983903 C10.7927565,9.5443662 11.1715292,9.8472837 11.5502012,9.8472837 L30.1844064,9.8472837 C30.6389336,9.8472837 30.9418511,9.54426559 30.9418511,9.08983903 C30.9418511,8.63531187 30.638833,8.33239437 30.1844064,8.33239437 Z" id="Shape"></path>
                    <path d="M30.1844064,12.8015091 L11.5502012,12.8015091 C11.095674,12.8015091 10.7927565,13.1045272 10.7927565,13.5589537 C10.7927565,14.0134809 11.1715292,14.3163984 11.5502012,14.3163984 L30.1844064,14.3163984 C30.6389336,14.3163984 30.9418511,14.0133803 30.9418511,13.5589537 C30.9418511,13.1045272 30.638833,12.8015091 30.1844064,12.8015091 Z" id="Shape"></path>
                </g>
            </g>
        </g>
    </g>
</svg>