<?xml version="1.0" encoding="UTF-8"?>
<svg width="50px" height="50px" viewBox="0 0 50 50" version="1.1" xmlns="http://www.w3.org/2000/svg" xmlns:xlink="http://www.w3.org/1999/xlink">
    <!-- Generator: Sketch 51.2 (57519) - http://www.bohemiancoding.com/sketch -->
    <title>billboard</title>
    <desc>Created with Sketch.</desc>
    <defs></defs>
    <g id="-" stroke="none" stroke-width="1" fill="none" fill-rule="evenodd">
        <g transform="translate(-695.000000, -4039.000000)" fill="#FFFFFF" fill-rule="nonzero" id="02">
            <g transform="translate(647.000000, 4016.000000)">
                <g id="billboard" transform="translate(48.000000, 23.000000)">
                    <path d="M47.7216298,3.56016097 L38.2530181,3.56016097 L38.2530181,1.51498994 L39.2377264,1.51498994 C39.6922535,1.51498994 39.995171,1.21197183 39.995171,0.757545272 C39.995171,0.303118712 39.6922535,0 39.2377264,0 L35.8290744,0 C35.3745473,0 35.0716298,0.303018109 35.0716298,0.757444668 C35.0716298,1.21187123 35.3746479,1.51488934 35.8290744,1.51488934 L36.8137827,1.51488934 L36.8137827,3.56006036 L32.0416499,3.56006036 L32.0416499,1.51498994 L33.0263581,1.51498994 C33.4808853,1.51498994 33.7838028,1.21197183 33.7838028,0.757545272 C33.7838028,0.303118712 33.4808853,0 33.0263581,0 L29.5419517,0 C29.0874245,0 28.784507,0.303018109 28.784507,0.757444668 C28.784507,1.21187123 29.0875252,1.51488934 29.5419517,1.51488934 L30.52666,1.51488934 L30.52666,3.56006036 L25.7545272,3.56006036 L25.7545272,1.51498994 L26.7392354,1.51498994 C27.1937626,1.51498994 27.4966801,1.21197183 27.4966801,0.757545272 C27.4966801,0.303118712 27.1937626,0 26.7392354,0 L23.3305835,0 C22.8760563,0 22.5731388,0.303018109 22.5731388,0.757444668 C22.5731388,1.21187123 22.8761569,1.51488934 23.3305835,1.51488934 L24.2395372,1.51488934 L24.2395372,3.56006036 L19.4674044,3.56006036 L19.4674044,1.51498994 L20.4521127,1.51498994 C20.9066398,1.51498994 21.2095573,1.21197183 21.2095573,0.757545272 C21.2095573,0.303118712 20.9066398,0 20.4521127,0 L17.0434608,0 C16.5889336,0 16.2860161,0.303018109 16.2860161,0.757444668 C16.2860161,1.21187123 16.5890342,1.51488934 17.0434608,1.51488934 L18.028169,1.51488934 L18.028169,3.56006036 L13.2560362,3.56006036 L13.2560362,1.51498994 L14.2407445,1.51498994 C14.6952716,1.51498994 14.9981891,1.21197183 14.9981891,0.757545272 C14.9981891,0.303118712 14.6952716,0 14.2407445,0 L10.8320926,0 C10.3775654,0 10.0746479,0.303018109 10.0746479,0.757444668 C10.0746479,1.21187123 10.377666,1.51488934 10.8320926,1.51488934 L11.8168008,1.51488934 L11.8168008,3.56006036 L2.27243461,3.56006036 C1.06046278,3.56016097 0,4.54486922 0,5.83259557 L0,32.9506036 C0,34.1625755 0.984708249,35.2230382 2.27243461,35.2230382 L19.7703219,35.2230382 L19.7703219,44.3128773 L14.0133803,44.3128773 C13.5588531,44.3128773 13.2559356,44.6158954 13.2559356,45.0703219 L13.2559356,49.2365191 C13.2559356,49.6910463 13.5589537,49.9939638 14.0133803,49.9939638 L35.9047284,49.9939638 C36.3592555,49.9939638 36.662173,49.6909457 36.662173,49.2365191 L36.662173,45.0704225 C36.662173,44.6158954 36.3591549,44.3129779 35.9047284,44.3129779 L30.1477867,44.3129779 L30.1477867,35.2231388 L47.7214286,35.2231388 C48.9334004,35.2231388 49.9938632,34.2384306 49.9938632,32.9507042 L49.9938632,5.83259557 C49.9940644,4.62062374 49.0093561,3.56016097 47.7216298,3.56016097 Z M35.2231388,45.8278672 L35.2231388,48.4790744 L35.1473843,48.4790744 L14.8466801,48.4790744 L14.8466801,45.8278672 C17.0434608,45.8278672 33.1778672,45.8278672 35.2231388,45.8278672 Z M21.2853119,44.3129779 L21.2853119,35.2231388 L28.7086519,35.2231388 L28.7086519,44.3129779 L21.2853119,44.3129779 Z M48.4790744,32.9506036 C48.4790744,33.3293763 48.1760563,33.7080483 47.7216298,33.7080483 C24.6940644,33.7080483 25.2242455,33.7080483 2.19668008,33.7080483 C1.81790744,33.7080483 1.43923541,33.4050302 1.43923541,32.9506036 L1.43923541,5.83259557 C1.43923541,5.45382294 1.74225352,5.07515091 2.19668008,5.07515091 L47.7216298,5.07515091 C48.1004024,5.07515091 48.4790744,5.37816901 48.4790744,5.83259557 L48.4790744,32.9506036 Z" id="Shape"></path>
                    <path d="M45.4491952,7.19607646 L4.54486922,7.19607646 C4.09034205,7.19607646 3.78742455,7.49909457 3.78742455,7.95352113 L3.78742455,30.7538229 C3.78742455,31.2083501 4.09044266,31.5112676 4.54486922,31.5112676 L45.4490946,31.5112676 C45.9036217,31.5112676 46.2065392,31.2082495 46.2065392,30.7538229 L46.2065392,7.95362173 C46.2066398,7.57484909 45.9036217,7.19607646 45.4491952,7.19607646 Z M44.6916499,30.0722334 L5.30241449,30.0722334 L5.30241449,8.7110664 L44.6916499,8.7110664 L44.6916499,30.0722334 Z" id="Shape"></path>
                    <path d="M17.9524145,21.8913481 L22.5730382,21.8913481 L23.481992,23.9365191 L25.1484909,23.9365191 L21.1338028,14.7709256 L19.4673038,14.7709256 L15.4527163,23.9365191 L17.1192153,23.9365191 L17.9524145,21.8913481 Z M20.2248491,16.6646881 L21.8913481,20.4521127 L18.5584507,20.4521127 L20.2248491,16.6646881 Z" id="Shape"></path>
                    <path d="M33.3293763,22.7245473 C34.1625755,21.8913481 34.6171026,20.7551308 34.6171026,19.3158954 C34.6171026,17.87666 34.1625755,16.8161972 33.3293763,15.982998 C32.4204225,15.1497988 31.2084507,14.7710262 29.5419517,14.7710262 L26.4362173,14.7710262 L26.4362173,23.9366197 L29.4661972,23.9366197 C31.1326962,23.9365191 32.4961771,23.5578471 33.3293763,22.7245473 Z M27.7996982,16.210161 L27.8754527,16.210161 L29.3904427,16.210161 C31.8143863,16.210161 33.0263581,17.2706237 33.0263581,19.3158954 C33.0263581,20.3763581 32.72334,21.1339034 32.1174044,21.6640845 C31.5114688,22.1943662 30.678169,22.4215292 29.5419517,22.4215292 L27.7996982,22.4215292 L27.7996982,16.210161 Z" id="Shape"></path>
                </g>
            </g>
        </g>
    </g>
</svg>