<?xml version="1.0" encoding="UTF-8"?>
<svg width="36px" height="40px" viewBox="0 0 36 40" version="1.1" xmlns="http://www.w3.org/2000/svg" xmlns:xlink="http://www.w3.org/1999/xlink">
    <!-- Generator: Sketch 50 (54983) - http://www.bohemiancoding.com/sketch -->
    <title>round-event-24px</title>
    <desc>Created with Sketch.</desc>
    <defs></defs>
    <g id="-" stroke="none" stroke-width="1" fill="none" fill-rule="evenodd">
        <g id="App-Landing" transform="translate(-558.000000, -5884.000000)">
            <g id="round-event-24px" transform="translate(552.000000, 5880.000000)">
                <polygon id="Shape" points="0 0 48 0 48 48 0 48"></polygon>
                <path d="M32,26 L26,26 C24.9,26 24,26.9 24,28 L24,34 C24,35.1 24.9,36 26,36 L32,36 C33.1,36 34,35.1 34,34 L34,28 C34,26.9 33.1,26 32,26 Z M32,6 L32,8 L16,8 L16,6 C16,4.9 15.1,4 14,4 C12.9,4 12,4.9 12,6 L12,8 L10,8 C7.78,8 6.02,9.8 6.02,12 L6,40 C6,42.2 7.78,44 10,44 L38,44 C40.2,44 42,42.2 42,40 L42,12 C42,9.8 40.2,8 38,8 L36,8 L36,6 C36,4.9 35.1,4 34,4 C32.9,4 32,4.9 32,6 Z M36,40 L12,40 C10.9,40 10,39.1 10,38 L10,18 L38,18 L38,38 C38,39.1 37.1,40 36,40 Z" id="Shape" fill="#FF5D5B" fill-rule="nonzero"></path>
            </g>
        </g>
    </g>
</svg>