<?xml version="1.0" encoding="UTF-8"?>
<svg width="34px" height="28px" viewBox="0 0 34 28" version="1.1" xmlns="http://www.w3.org/2000/svg" xmlns:xlink="http://www.w3.org/1999/xlink">
    <!-- Generator: Sketch 50 (54983) - http://www.bohemiancoding.com/sketch -->
    <title>round-view_list-24px</title>
    <desc>Created with Sketch.</desc>
    <defs></defs>
    <g id="-" stroke="none" stroke-width="1" fill="none" fill-rule="evenodd">
        <g id="App-Landing" transform="translate(-270.000000, -5890.000000)">
            <g id="Group-17" transform="translate(160.000000, 5848.000000)">
                <g id="round-view_list-24px" transform="translate(104.000000, 32.000000)">
                    <polygon id="Shape" opacity="0.87" points="0 0 48 0 48 48 0 48"></polygon>
                    <path d="M8,28 L12,28 C13.1,28 14,27.1 14,26 L14,22 C14,20.9 13.1,20 12,20 L8,20 C6.9,20 6,20.9 6,22 L6,26 C6,27.1 6.9,28 8,28 Z M8,38 L12,38 C13.1,38 14,37.1 14,36 L14,32 C14,30.9 13.1,30 12,30 L8,30 C6.9,30 6,30.9 6,32 L6,36 C6,37.1 6.9,38 8,38 Z M8,18 L12,18 C13.1,18 14,17.1 14,16 L14,12 C14,10.9 13.1,10 12,10 L8,10 C6.9,10 6,10.9 6,12 L6,16 C6,17.1 6.9,18 8,18 Z M18,28 L38,28 C39.1,28 40,27.1 40,26 L40,22 C40,20.9 39.1,20 38,20 L18,20 C16.9,20 16,20.9 16,22 L16,26 C16,27.1 16.9,28 18,28 Z M18,38 L38,38 C39.1,38 40,37.1 40,36 L40,32 C40,30.9 39.1,30 38,30 L18,30 C16.9,30 16,30.9 16,32 L16,36 C16,37.1 16.9,38 18,38 Z M16,12 L16,16 C16,17.1 16.9,18 18,18 L38,18 C39.1,18 40,17.1 40,16 L40,12 C40,10.9 39.1,10 38,10 L18,10 C16.9,10 16,10.9 16,12 Z" id="Shape" fill="#AC74F1" fill-rule="nonzero"></path>
                </g>
            </g>
        </g>
    </g>
</svg>