<?xml version="1.0" encoding="UTF-8"?>
<svg width="44px" height="36px" viewBox="0 0 44 36" version="1.1" xmlns="http://www.w3.org/2000/svg" xmlns:xlink="http://www.w3.org/1999/xlink">
    <!-- Generator: Sketch 50 (54983) - http://www.bohemiancoding.com/sketch -->
    <title>round-photo_size_select_actual-24px copy</title>
    <desc>Created with Sketch.</desc>
    <defs></defs>
    <g id="-" stroke="none" stroke-width="1" fill="none" fill-rule="evenodd">
        <g id="App-Landing" transform="translate(-842.000000, -5886.000000)">
            <g id="round-photo_size_select_actual-24px-copy" transform="translate(840.000000, 5880.000000)">
                <polygon id="Shape" points="0 0 48 0 48 48 0 48"></polygon>
                <path d="M42,6 L6,6 C3.8,6 2,7.8 2,10 L2,38 C2,40.2 3.8,42 6,42 L42,42 C44.2,42 46,40.2 46,38 L46,10 C46,7.8 44.2,6 42,6 Z M40,38 L26,38 C24.9,38 24,37.1 24,36 L24,28 C24,26.9 24.9,26 26,26 L40,26 C41.1,26 42,26.9 42,28 L42,36 C42,37.1 41.1,38 40,38 Z" id="Shape" fill="#F2B51E" fill-rule="nonzero"></path>
            </g>
        </g>
    </g>
</svg>